<svg xmlns="http://www.w3.org/2000/svg" xmlns:xlink="http://www.w3.org/1999/xlink" xmlns:ifc="http://www.ifcopenshell.org/ns" width="300mm" height="220mm" viewBox="0 0 300 220">
    <defs>
        <marker id="arrowend" markerWidth="10" markerHeight="7" refX="10" refY="3.5" orient="auto">
          <polygon points="0 0, 10 3.5, 0 7"/>
        </marker>
        <marker id="arrowstart" markerWidth="10" markerHeight="7" refX="0" refY="3.5" orient="auto">
          <polygon points="10 0, 0 3.5, 10 7"/>
        </marker>
    </defs>
    <g ifc:name="Elevation 1ST S.L PLAN" class="section" ifc:plane="[[1.000000,0.000000,0.000000,0.000000],[0.000000,1.000000,0.000000,0.000000],[0.000000,0.000000,1.000000,1.700000],[0.000000,0.000000,0.000000,1.000000]]" ifc:matrix3="[[10.000000,0.000000,37.248259],[0.000000,10.000000,252.371752],[0.000000,0.000000,1.000000]]">
        <g id="product-d8cd0d6c-8ebb-43f0-81a6-66272378161a" class="IfcCovering material-null projection" ifc:name="Covering" ifc:guid="3OpGriZhj3y86cPYSZU1OQ">
            <path d="M65.306558653843794,63.460642896590805 L66.306558631491995,63.460643210507264"/>
            <path d="M65.306540760603284,120.46064776490194 L65.306558653843794,63.460642896590805"/>
            <path d="M65.306540760603284,120.46064776490194 L66.306540738251243,120.46064886957203"/>
            <path d="M66.306558631491995,63.460643210507264 L66.306540738251243,120.46064886957203"/>
            <path d="M66.306538854751309,126.46065239757245 L66.306535715595516,136.46062391625782"/>
            <path d="M66.306538854751309,126.46065239757245 L65.30653887710335,126.46065129290237"/>
            <path d="M65.3065357379473,136.46062360234134 L65.30653887710335,126.46065129290237"/>
            <path d="M66.306535715595516,136.46062391625782 L65.3065357379473,136.46062360234134"/>
        </g>
    <g id="product-d0c67aa8-8a88-42eb-96a8-ec2ae37d5a8d" class="IfcCovering material-null projection" ifc:name="Covering" ifc:guid="3GndgeYeX2wvQex2hZVLgD">
            <path d="M239.30655029439686,137.4605189897334 L239.30655044539267,136.46051901208517"/>
            <path d="M156.27713875156203,136.46050647499251 L239.30655044539267,136.46051901208517"/>
            <path d="M156.27713860056622,137.46050645264077 L156.27713875156203,136.46050647499251"/>
            <path d="M156.27713860056622,137.46050645264077 L239.30655029439686,137.4605189897334"/>
        </g>
        <g id="product-3c525c9f-9147-4060-9c19-aedd37fa2a9a" class="IfcGeographicElement material-sand projection" ifc:name="&#51648;&#54805;" ifc:guid="0yKboVaKT0O9mPhjqt_YgQ">
            <path d="M145.24159206817237,136.46049246908072 L145.49158833906029,136.46049244722536"/>
            <path d="M145.8415883327273,136.4604924166274 L154.24159186700669,136.46049168227577"/>
            <path d="M238.30656243351075,106.42783327233434 L238.30655920173771,69.460659019847299"/>
            <path d="M244.30655720008917,192.46065114204799 L244.30656023200152,192.46065114204774"/>
            <path d="M244.30655874581421,175.46065030132431 L244.30655720008917,175.46065030132445"/>
            <path d="M244.30656023200152,192.46065114204774 L244.30656023200143,192.46065047370237"/>
            <path d="M150.30656729217102,192.46065262823461 L150.30656921936577,192.46065262823444"/>
            <path d="M167.30657036526506,192.46065114204717 L167.30657301570682,192.46065114204694"/>
            <path d="M150.30656729217083,192.46065047370237 L150.30656729217102,192.46065262823461"/>
            <path d="M167.30657152951957,175.46065030132351 L167.30657036526506,175.46065030132362"/>
            <path d="M150.30656860901422,175.46065178751095 L150.30656580598375,175.46065178751121"/>
            <path d="M167.30657301570682,192.46065114204694 L167.30657301570676,192.46065047370237"/>
            <path d="M-14.546478853694053,319.48828305616638 L-14.546478853694053,-61.989599042138366"/>
            <path d="M373.47601247332727,-61.989599042138366 L-14.546478853694026,-61.989599042138366"/>
            <path d="M373.47601247332727,319.48828305616638 L-14.546478853694026,319.48828305616638"/>
            <path d="M373.47601247332727,319.48828305616638 L373.47601247332727,-61.989599042138366"/>
        </g>
        <g id="product-a87774ba-e9ff-4eb2-a94c-256c7896b4c3" class="IfcCovering material-null projection" ifc:name="Covering" ifc:guid="2eTtIwwVzEigbC9MnubhJ3">
            <path d="M65.306536611365971,137.4606266041645 L65.306537000780324,136.4606266265163"/>
            <path d="M144.99158559240641,137.46065763466743 L65.306536611365971,137.4606266041645"/>
            <path d="M144.99158559240641,137.46065763466743 L144.99158559240641,136.46065765701911"/>
            <path d="M65.306537000780324,136.4606266265163 L144.99158559240641,136.46065765701911"/>
            <path d="M154.49158232830717,136.46066135645432 L156.30655039323926,136.46066206322897"/>
            <path d="M154.49158232830717,136.46066135645432 L154.49158232830717,137.46066133410264"/>
            <path d="M156.30655000382492,137.46066204087714 L154.49158232830717,137.46066133410264"/>
            <path d="M156.30655039323926,136.46066206322897 L156.30655000382492,137.46066204087714"/>
        </g>
        <g id="product-c1076c31-fa42-4f00-aea7-9a0f5a749998" class="IfcCovering material-null projection" ifc:name="Covering" ifc:guid="311smn_a9F0AwdcWzQT9cO">
            <path d="M154.30656165743522,63.46064609165564 L134.30656332517319,63.460646965883356"/>
            <path d="M154.30656165743522,64.46064606930392 L134.30656332517319,64.460646943531586"/>
            <path d="M124.30657155875066,63.46064609165564 L124.30657155875066,64.460646069303877"/>
            <path d="M134.30656301919348,64.460646943531586 L124.30657155875066,64.460646069303877"/>
            <path d="M134.30656301919348,63.460646965883356 L134.30656301919348,64.460646943531586"/>
            <path d="M134.30656301919348,63.460646965883356 L124.30657155875066,63.46064609165564"/>
            <path d="M124.30657186473034,63.46064609165564 L104.30657353246832,63.460646965883356"/>
            <path d="M124.30657186473034,64.46064606930392 L104.30657353246832,64.460646943531586"/>
            <path d="M94.306571008599818,63.460646091655711 L94.306571008599818,64.460646069303948"/>
            <path d="M104.3065732264886,64.460646943531586 L94.306571008599818,64.460646069303948"/>
            <path d="M104.3065732264886,63.460646965883356 L104.3065732264886,64.460646943531586"/>
            <path d="M104.3065732264886,63.460646965883356 L94.306571008599818,63.460646091655711"/>
            <path d="M94.3065713145795,63.460646091655711 L74.306575423723672,63.460646965883285"/>
            <path d="M94.3065713145795,64.460646069303948 L74.306575423723672,64.460646943531557"/>
            <path d="M66.306557173267123,63.46064652876948 L66.306557173267123,64.460646506417746"/>
            <path d="M74.306575117743947,64.460646943531515 L66.306557173267123,64.460646506417746"/>
            <path d="M74.306575117743947,63.460646965883285 L74.306575117743947,64.460646943531515"/>
            <path d="M74.306575117743947,63.460646965883285 L66.306557173267123,63.46064652876948"/>
            <path d="M156.30657635436998,63.46064652876948 L154.30656135145554,63.46064609165564"/>
            <path d="M154.30656135145554,63.46064609165564 L154.30656135145554,64.460646069303877"/>
            <path d="M156.30657635436998,64.460646506417746 L154.30656135145554,64.460646069303877"/>
            <path d="M156.30657635436998,63.46064652876948 L156.30657635436998,64.460646506417746"/>
        </g>
        <g id="product-458fdfda-5e78-4f99-9e1f-c6f3ba9210fd" class="IfcWall material-concrete projection" ifc:name="Wall" ifc:guid="15Zz$QNdXFcPuVnlEwaX3z">
            <path d="M66.306547239133579,116.46065282252468 L68.306547194430095,116.46065297352048"/>
            <path d="M66.306546937142386,120.46064737585243 L66.306547239133579,116.46065282252468"/>
            <path d="M66.306546937142386,120.46064737585243 L68.30654689243886,120.46064800368536"/>
            <path d="M68.306547194430095,116.46065297352048 L68.30654689243886,120.46064800368536"/>
            <path d="M68.306546439451097,126.46065275238745 L68.306545684472098,136.4606525264862"/>
            <path d="M68.306546439451097,126.46065275238745 L66.306546484154623,126.46065212455453"/>
            <path d="M66.306545729175596,136.46065237549038 L66.306546484154623,126.46065212455453"/>
            <path d="M68.306545684472098,136.4606525264862 L66.306545729175596,136.46065237549038"/>
        </g>
        <g id="product-b5163419-3657-4f93-83f1-f11f85720b1a" class="IfcCovering material-fin projection" ifc:name="Covering" ifc:guid="2r5ZGPDbTFauFnyH_5SWiQ">
            <path d="M238.30654680003968,136.46051890747032 L238.30658480001964,63.460642714071604"/>
            <path d="M239.30654677768777,136.46051942801884 L238.30654680003968,136.46051890747032"/>
            <path d="M239.30658477766775,63.460643234620136 L239.30654677768777,136.46051942801884"/>
            <path d="M238.30658480001964,63.460642714071604 L239.30658477766775,63.460643234620136"/>
        </g>
        <g id="product-4413520e-35e4-4adb-aace-9272b05919b3" class="IfcWall material-concrete projection" ifc:name="Wall" ifc:guid="144r8EDUHAswhEadAmMHcp">
            <path d="M98.306574387025009,66.460655044783039 L98.306559319034321,114.46065492557345"/>
            <path d="M96.306574431728578,66.460654416950121 L98.306574387025009,66.460655044783039"/>
            <path d="M96.306559363737904,114.46065429774052 L96.306574431728578,66.460654416950121"/>
            <path d="M98.306559319034321,114.46065492557345 L96.306559363737904,114.46065429774052"/>
        </g>
        <g id="product-bfba047a-fc6a-4e38-b87e-8d30f8e81575" class="IfcWall material-concrete projection" ifc:name="Wall" ifc:guid="2$kWHw$6fEEBX_ZJ3uw1Lr">
            <path d="M128.30657371647274,66.460655044781348 L128.30655864848208,114.46065492557345"/>
            <path d="M126.30657376117632,66.460654416948415 L128.30657371647274,66.460655044781348"/>
            <path d="M126.30655869318565,114.46065429774052 L126.30657376117632,66.460654416948415"/>
            <path d="M128.30655864848208,114.46065492557345 L126.30655869318565,114.46065429774052"/>
        </g>
        <g id="product-e0abf0ac-e582-4c82-ba2e-60cf19e038cb" class="IfcCovering material-fin projection" ifc:name="Covering" ifc:guid="3Wg$2ivO9CWhekOCyPu3ZB">
            <path d="M238.30658493957964,64.460646506417746 L156.30656946672485,64.460646506417746"/>
            <path d="M238.30658493957964,63.46064652876948 L238.30658493957964,64.460646506417746"/>
            <path d="M156.30656946672485,63.46064652876948 L238.30658493957964,63.46064652876948"/>
            <path d="M156.30656946672485,64.460646506417746 L156.30656946672485,63.46064652876948"/>
        </g>
        <g id="product-2e316d86-0317-481d-9375-7a0659b2e7bf" class="IfcWall material-concrete projection" ifc:name="Wall" ifc:guid="0kCMs60nT87PDrUWPPikU$">
            <path d="M209.96916401617369,116.46065297352102 L209.96916401617369,114.46065301822452"/>
            <path d="M209.96916401617369,114.46065301822452 L208.30656639708533,114.46065301822452"/>
            <path d="M208.30656639708533,114.46065301822452 L208.30656639708533,116.46065297352102"/>
            <path d="M209.96916401617369,116.46065297352102 L208.30656639708533,116.46065297352102"/>
            <path d="M218.96916381500802,114.46065301822452 L218.96916381500802,116.46065297352102"/>
            <path d="M233.30656583829179,116.46065297352102 L218.96916381500802,116.46065297352102"/>
            <path d="M233.30656583829179,114.46065301822452 L233.30656583829179,116.46065297352102"/>
            <path d="M233.30656583829179,114.46065301822452 L218.96916381500802,114.46065301822452"/>
        </g>
        <g id="product-2a8a10c1-4c6e-41ea-8e16-8bb04999958f" class="IfcWall material-concrete projection" ifc:name="Wall" ifc:guid="0gYX31J6v1weuMYx19cPMF">
            <path d="M158.30657116242381,69.460645668051342 L158.30655797792963,111.46065308527973"/>
            <path d="M156.3065712071274,69.460645040218424 L158.30657116242381,69.460645668051342"/>
            <path d="M156.3065580226332,111.4606524574468 L156.3065712071274,69.460645040218424"/>
            <path d="M158.30655797792963,111.46065308527973 L156.3065580226332,111.4606524574468"/>
        </g>
        <g id="product-b0f143b3-b409-43a2-82ad-f920c65fc748" class="IfcWall material-concrete projection" ifc:name="Wall" ifc:guid="2myKEpj0b3eeAj_I36NyT8">
            <path d="M238.30655230354452,116.46065286755861 L238.30654665304752,134.46065447853863"/>
            <path d="M236.30655234824812,116.46065223972568 L238.30655230354452,116.46065286755861"/>
            <path d="M236.30654669775109,134.46065385070568 L236.30655234824812,116.46065223972568"/>
            <path d="M238.30654665304752,134.46065447853863 L236.30654669775109,134.46065385070568"/>
        </g>
        <g id="product-c429c668-0712-44e3-a3a3-bb5b36ad4d14" class="IfcWall material-concrete projection" ifc:name="Wall" ifc:guid="34ASPe1n94uwEZkrishKqK">
            <path d="M233.30656520250929,66.46065409110814 L161.30656935496614,66.46065409110814"/>
            <path d="M233.30656520250929,64.460654135811623 L233.30656520250929,66.46065409110814"/>
            <path d="M161.30656935496614,64.460654135811623 L233.30656520250929,64.460654135811623"/>
            <path d="M161.30656935496614,66.46065409110814 L161.30656935496614,64.460654135811623"/>
        </g>
        <g id="product-af9b0496-ac2e-4333-90cf-430a40da3a79" class="IfcWall material-concrete projection" ifc:name="Wall" ifc:guid="2lcmIMh2v3Cv3FGmf0sZfv">
            <path d="M85.206560184046637,116.46065297352102 L85.206560184046637,114.46065301822452"/>
            <path d="M85.206560184046637,114.46065301822452 L71.306559445694162,114.46065301822452"/>
            <path d="M71.306559445694162,114.46065301822452 L71.306559445694162,116.46065297352102"/>
            <path d="M85.206560184046637,116.46065297352102 L71.306559445694162,116.46065297352102"/>
            <path d="M115.20655951349438,116.46065297352102 L115.20655951349438,114.46065301822452"/>
            <path d="M115.20655951349438,114.46065301822452 L94.206559982880961,114.46065301822452"/>
            <path d="M94.206559982880961,114.46065301822452 L94.206559982880961,116.46065297352102"/>
            <path d="M115.20655951349438,116.46065297352102 L94.206559982880961,116.46065297352102"/>
            <path d="M145.24159206817228,116.46065297352102 L145.24159206817228,114.46065301822452"/>
            <path d="M145.24159206817228,114.46065301822452 L124.20655931232869,114.46065301822452"/>
            <path d="M124.20655931232869,114.46065301822452 L124.20655931232869,116.46065297352102"/>
            <path d="M145.24159206817228,116.46065297352102 L124.20655931232869,116.46065297352102"/>
            <path d="M154.2415918670066,114.46065301822452 L154.2415918670066,116.46065297352102"/>
            <path d="M156.30655754579612,116.46065297352102 L154.2415918670066,116.46065297352102"/>
            <path d="M156.30655754579612,114.46065301822452 L156.30655754579612,116.46065297352102"/>
            <path d="M156.30655754579612,114.46065301822452 L154.2415918670066,114.46065301822452"/>
        </g>
        <g id="product-17b85e6c-c9a1-4c50-a3e1-57ea01cf9566" class="IfcWall material-concrete projection" ifc:name="Wall.023" ifc:guid="0Nk5vioQ5CKAFXL_e1pvLc">
            <path d="M134.30656232906873,64.460654135811623 L154.30656066133082,64.460654135811623"/>
            <path d="M134.30656232906873,66.46065409110814 L154.30656066133082,66.46065409110814"/>
            <path d="M124.30657086862607,64.460654135811623 L124.30657086862607,66.46065409110814"/>
            <path d="M134.30656232906873,66.46065409110814 L124.30657086862607,66.46065409110814"/>
            <path d="M134.30656232906873,66.46065409110814 L134.30656232906873,64.460654135811623"/>
            <path d="M134.30656232906873,64.460654135811623 L124.30657086862607,64.460654135811623"/>
            <path d="M104.30657253636397,64.460654135811623 L124.30657086862607,64.460654135811623"/>
            <path d="M104.30657253636397,66.46065409110814 L124.30657086862607,66.46065409110814"/>
            <path d="M104.30657253636397,66.46065409110814 L104.30657253636397,64.460654135811623"/>
            <path d="M104.30657253636397,64.460654135811623 L94.30657392336407,64.460654135811623"/>
            <path d="M94.30657392336407,64.460654135811623 L94.30657392336407,66.46065409110814"/>
            <path d="M104.30657253636397,66.46065409110814 L94.30657392336407,66.46065409110814"/>
            <path d="M74.306575591101975,64.460654135811623 L94.30657392336407,64.460654135811623"/>
            <path d="M74.306575591101975,66.46065409110814 L94.30657392336407,66.46065409110814"/>
            <path d="M71.306559445694162,64.460654135811623 L71.306559445694162,66.46065409110814"/>
            <path d="M74.306575591101975,66.46065409110814 L71.306559445694162,66.46065409110814"/>
            <path d="M74.306575591101975,66.46065409110814 L74.306575591101975,64.460654135811623"/>
            <path d="M74.306575591101975,64.460654135811623 L71.306559445694162,64.460654135811623"/>
            <path d="M156.30656652155372,64.460654135811623 L154.30656066133082,64.460654135811623"/>
            <path d="M154.30656066133082,64.460654135811623 L154.30656066133082,66.46065409110814"/>
            <path d="M156.30656652155372,66.46065409110814 L154.30656066133082,66.46065409110814"/>
            <path d="M156.30656652155372,64.460654135811623 L156.30656652155372,66.46065409110814"/>
        </g>
        <g id="product-db467f43-b309-4349-92d2-c3e3aebfd045" class="IfcWall material-concrete projection" ifc:name="Wall" ifc:guid="3RHdz3imb3IPBIm_Eklz15">
            <path d="M223.3065701427268,66.460654311192457 L223.30656606180921,79.460665244627208"/>
            <path d="M221.30657018743037,66.460653683359496 L223.3065701427268,66.460654311192457"/>
            <path d="M221.3065661065128,79.46066461679429 L221.30657018743037,66.460653683359496"/>
            <path d="M223.30656606180921,79.460665244627208 L221.3065661065128,79.46066461679429"/>
        </g>
        <g id="product-e955f6ab-6b0e-4774-9ce0-c04885b9909d" class="IfcWall material-concrete projection" ifc:name="Wall" ifc:guid="3fLVQhQmv7T9pWm4Y5kP2T">
            <path d="M145.24159206817237,136.4606525264862 L145.24159206817237,134.46065257118968"/>
            <path d="M145.24159206817237,134.46065257118968 L68.306545684472098,134.46065257118968"/>
            <path d="M68.306545684472098,134.46065257118968 L68.306545684472098,136.4606525264862"/>
            <path d="M145.24159206817237,136.4606525264862 L68.306545684472098,136.4606525264862"/>
            <path d="M154.24159186700669,134.46065257118968 L154.24159186700669,136.4606525264862"/>
            <path d="M238.30654188467599,136.4606525264862 L154.24159186700669,136.4606525264862"/>
            <path d="M238.30654188467599,134.46065257118968 L238.30654188467599,136.4606525264862"/>
            <path d="M238.30654188467599,134.46065257118968 L154.24159186700669,134.46065257118968"/>
        </g>
        <g id="product-cf9e4c67-3a7f-48da-bbb3-fdf720023188" class="IfcWindow material-null projection" ifc:name="Window" ifc:guid="3FdandEdz8shkp$VSW0Z68">
            <path d="M64.806481308230161,125.96064856501167 L64.806483934781269,120.96065226258632"/>
            <path d="M66.306502289701683,120.96065273346677 L64.806483934781269,120.96065226258632"/>
            <path d="M66.306499652005272,125.96064903589215 L66.306502289701683,120.96065273346677"/>
            <path d="M66.306499652005272,125.96064903589215 L64.806481308230161,125.96064856501167"/>
            <path d="M64.806481308229408,125.9606509682709 L64.806481151269864,126.46065513418797"/>
            <path d="M64.806481308229408,125.9606509682709 L64.806481151269864,126.46065513418797"/>
            <path d="M66.306499652004518,125.96065143915136 L64.806481308229408,125.9606509682709"/>
            <path d="M66.306499495044974,126.46065560506845 L66.306499652004518,125.96065143915136"/>
            <path d="M66.306499495044974,126.46065560506845 L66.306499652004518,125.96065143915136"/>
            <path d="M66.306499495044974,126.46065560506845 L64.806481151269864,126.46065513418797"/>
            <path d="M65.306538877102085,126.46065529116434 L64.806481151269864,126.46065513418797"/>
            <path d="M64.806484091740074,120.46065044270756 L64.806483934780886,120.96065348328941"/>
            <path d="M64.806484091740074,120.46065044270756 L64.806483934780886,120.96065348328941"/>
            <path d="M65.306540760603284,120.46065059968359 L64.806484091740074,120.46065044270756"/>
            <path d="M66.306502446660488,120.46065091358804 L64.806484091740074,120.46065044270756"/>
            <path d="M66.306502289701299,120.96065395416989 L66.306502446660488,120.46065091358804"/>
            <path d="M66.306502289701299,120.96065395416989 L66.306502446660488,120.46065091358804"/>
            <path d="M66.306502289701299,120.96065395416989 L64.806483934780886,120.96065348328941"/>
            <path d="M65.656494554838957,125.96065123510407 L65.456475714705235,125.96065117231485"/>
            <path d="M65.456475714705235,125.96065117231485 L65.656494554838957,125.96065123510407"/>
            <path d="M65.656497192536122,120.96065252941948 L65.656494554838957,125.96065123510407"/>
            <path d="M65.656494554838957,125.96065123510407 L65.656497192536122,120.96065252941948"/>
            <path d="M65.456478428696357,120.96065246663029 L65.656497192536122,120.96065252941948"/>
            <path d="M65.656497192536122,120.96065252941948 L65.456478428696357,120.96065246663029"/>
            <path d="M65.456475714705235,125.96065117231485 L65.456478428696357,120.96065246663029"/>
            <path d="M65.456475714705235,125.96065117231485 L65.456478428696357,120.96065246663029"/>
        </g>
        <g id="product-956ac65f-339e-4cba-a81e-cceb4fbffa54" class="IfcWall material-concrete projection" ifc:name="Wall" ifc:guid="2LQiPVCvvCkgWUpEjFl$fK">
            <path d="M238.3065598375417,69.460645668048144 L238.30654665304752,111.46065308527973"/>
            <path d="M236.3065598822453,69.460645040215226 L238.3065598375417,69.460645668048144"/>
            <path d="M236.30654669775109,111.4606524574468 L236.3065598822453,69.460645040215226"/>
            <path d="M238.30654665304752,111.46065308527973 L236.30654669775109,111.4606524574468"/>
        </g>
        <g id="product-4d873fc5-37c9-4f9b-b3bb-bc4bf84577b7" class="IfcWall material-concrete projection" ifc:name="Wall" ifc:guid="1DXp$5DybFcxExl4luHNUt">
            <path d="M208.30658209290866,66.46065409110696 L208.30656639708533,116.46065297352102"/>
            <path d="M206.30658213761225,66.460653463274042 L208.30658209290866,66.46065409110696"/>
            <path d="M206.30656644178893,116.46065234568809 L206.30658213761225,66.460653463274042"/>
            <path d="M208.30656639708533,116.46065297352102 L206.30656644178893,116.46065234568809"/>
        </g>
        <g id="product-e6557c64-1774-456b-bb2b-13671ef962c8" class="IfcWall material-concrete projection" ifc:name="Wall" ifc:guid="3cLNna5tH5Qxih4sSU_MB8">
            <path d="M236.30653879586498,81.460653755832013 L208.30656639708533,81.460653755832013"/>
            <path d="M236.30653879586498,79.460653800535496 L236.30653879586498,81.460653755832013"/>
            <path d="M208.30656639708533,79.460653800535496 L236.30653879586498,79.460653800535496"/>
            <path d="M208.30656639708533,81.460653755832013 L208.30656639708533,79.460653800535496"/>
        </g>
        <g id="product-0e1c6ee7-8e83-4b02-929a-1f6ce2a93312" class="IfcStairFlight material-null projection" ifc:name="StairFlight" ifc:guid="0E76xdZeDB0fAQ7spYgJCI">
            <path d="M206.30655901273295,90.894938212928409 L193.80656051283279,90.894938063867414"/>
            <path d="M206.30655887917428,102.09493735223737 L193.80656037927412,102.09493720317637"/>
            <path d="M206.30655897934327,93.694938150343503 L193.80656047944311,93.694938001282537"/>
            <path d="M206.30655884578459,104.89493698447671 L193.80656034588446,104.89493683541572"/>
            <path d="M193.80656063659754,80.516238137400492 L206.3065591364977,80.516238286461515"/>
            <path d="M206.30655907951228,85.294939558801218 L193.8065605796121,85.294939409740223"/>
            <path d="M206.30655894595361,96.494938087758641 L193.80656044605345,96.494937938697646"/>
            <path d="M206.3065590461226,88.094939496216355 L193.80656054622241,88.094939347155361"/>
            <path d="M206.30655907951228,85.294939558801218 L193.8065605796121,85.294939409740223"/>
            <path d="M206.30655881239497,107.69493661671605 L193.80656031249481,107.69493646765507"/>
            <path d="M206.30655891256396,99.294936804470694 L193.8065604126638,99.2949366554097"/>
            <path d="M193.80656031249481,107.69493646765507 L193.80656034588446,104.89493683541572"/>
            <path d="M193.80656034588446,104.89493683541572 L193.80656037927412,102.09493720317637"/>
            <path d="M193.80656037927412,102.09493720317637 L193.8065604126638,99.2949366554097"/>
            <path d="M193.8065604126638,99.2949366554097 L193.80656044605345,96.494937938697646"/>
            <path d="M193.80656044605345,96.494937938697646 L193.80656047944311,93.694938001282537"/>
            <path d="M193.80656047944311,93.694938001282537 L193.80656051283279,90.894938063867414"/>
            <path d="M193.80656051283279,90.894938063867414 L193.80656054622241,88.094939347155361"/>
            <path d="M193.80656054622241,88.094939347155361 L193.8065605796121,85.294939409740223"/>
            <path d="M193.8065605796121,85.294939409740223 L193.80656063659754,80.516238137400492"/>
            <path d="M193.80656063659754,80.516238137400492 L193.80656034588446,104.89493683541572"/>
            <path d="M206.30655884578459,104.89493698447673 L206.3065591364977,80.516238286461515"/>
            <path d="M206.3065591364977,80.516238286461515 L206.30655907951228,85.294939558801218"/>
            <path d="M206.30655907951228,85.294939558801218 L206.3065590461226,88.094939496216355"/>
            <path d="M206.3065590461226,88.094939496216355 L206.30655901273295,90.894938212928409"/>
            <path d="M206.30655901273295,90.894938212928409 L206.30655897934327,93.694938150343503"/>
            <path d="M206.30655897934327,93.694938150343503 L206.30655894595361,96.494938087758641"/>
            <path d="M206.30655894595361,96.494938087758641 L206.30655891256396,99.294936804470694"/>
            <path d="M206.30655891256396,99.294936804470694 L206.30655887917428,102.09493735223737"/>
            <path d="M206.30655887917428,102.09493735223737 L206.30655884578459,104.89493698447671"/>
            <path d="M206.30655881239497,107.69493661671605 L206.30655884578459,104.89493698447671"/>
        </g>
        <g id="product-c29dbb4f-80bf-4ba9-9210-cea0faa4443b" class="IfcRailing material-null projection" ifc:name="Railing" ifc:guid="32dRjFWBzBgP8Gpg3wf4Gx">
            <path d="M193.35655916646093,79.410673478338779 L192.45655731767886,79.410673438998415"/>
            <path d="M193.35655896773079,97.272712248308864 L193.35655912412014,93.69494088977342"/>
            <path d="M193.35655912412014,93.69494088977342 L193.35655961368801,82.494933663306497"/>
            <path d="M193.65655930180671,82.49493367641989 L193.65655942259039,93.69494090288687"/>
            <path d="M192.45655733079226,79.110673445703966 L193.50655945309018,79.110673491601005"/>
            <path d="M193.65655942259039,93.69494090288687 L193.65655926620104,97.272712261422299"/>
            <path d="M193.50655945309018,79.110673491601005 L193.50655944653346,79.260673488248173"/>
            <path d="M193.35655912412014,93.69494088977342 L193.65655942259039,93.69494090288687"/>
            <path d="M193.65655930180671,82.49493367641989 L193.65655944318073,79.260673494804962"/>
            <path d="M193.65655930180671,82.49493367641989 L193.35655961368801,82.494933663306497"/>
            <path d="M193.35655961368801,82.494933663306497 L193.35655914471045,79.260673481691498"/>
            <path d="M193.65655944318073,79.260673494804962 L193.35655914471045,79.260673481691498"/>
            <path d="M192.45655731767886,79.410673438998415 L193.3565591664609,79.410673478338779"/>
            <path d="M193.50655944653346,79.260673488248244 L193.50655945309018,79.110673491601005"/>
            <path d="M193.50655945309018,79.110673491601005 L192.45655733079226,79.110673445703966"/>
            <path d="M192.45655733079226,79.110673445703966 L192.45655731767886,79.410673438998415"/>
            <path d="M193.35655912412014,93.69494088977342 L193.35655961368801,82.494933663306497"/>
            <path d="M193.65655942259039,93.69494090288687 L193.65655930180671,82.49493367641989"/>
            <path d="M193.35655896773079,97.272712248308807 L193.35655912412014,93.69494088977342"/>
            <path d="M193.65655942259039,93.69494090288687 L193.65655926620104,97.272712261422299"/>
            <path d="M193.65655926620104,97.272712261422299 L193.35655896773079,97.272712248308864"/>
            <path d="M193.35655896773079,97.272712248308864 L193.35655851216094,107.69493554144871"/>
            <path d="M193.35655851216094,107.69493554144871 L193.6565588106312,107.69493555456216"/>
            <path d="M193.65655926620104,97.272712261422299 L193.6565588106312,107.69493555456216"/>
        </g>
        <g id="product-19d94537-4a71-478e-adf2-5b233cb2ebeb" class="IfcWall material-concrete projection" ifc:name="Wall" ifc:guid="0PsKKtId57ZgtoMoCyiklh">
            <path d="M68.306568405709299,69.460645668050063 L68.306555221215092,111.46065308527973"/>
            <path d="M66.306568450412868,69.460645040217116 L68.306568405709299,69.460645668050063"/>
            <path d="M66.306555265918675,111.4606524574468 L66.306568450412868,69.460645040217116"/>
            <path d="M68.306555221215092,111.46065308527973 L66.306555265918675,111.4606524574468"/>
        </g>
        <g id="product-639da8a7-2c1a-4adc-969c-44c27956124e" class="IfcSlab material-concrete projection" ifc:name="Slab" ifc:guid="1ZdQYdB1fAt9QSHC9vLX9E">
            <path d="M66.30649591280158,126.460652397525 L66.306496426068307,125.96064903589114"/>
            <path d="M66.306501558697192,120.96065273346655 L66.306502071964417,120.46064886952931"/>
            <path d="M238.30654680005543,136.46048864709584 L238.30654188467599,136.46048864709584"/>
            <path d="M154.24159186700669,136.46048864709584 L145.84158833272787,136.46048864709584"/>
            <path d="M145.49158833906083,136.46048864709584 L145.24159206817237,136.46048864709584"/>
            <path d="M66.306545729187988,136.46048864709584 L66.306535715638006,136.46048864709584"/>
            <path d="M238.30655571295327,82.599772709912358 L238.30655571295327,111.46065308527973"/>
            <path d="M238.30655571295327,116.46065297352102 L238.30655571295327,119.33836279442428"/>
            <path d="M104.3065732264886,64.460646506417746 L129.30656750554701,64.460646506417746"/>
            <path d="M134.30656301919348,64.460646506417746 L156.30656946672462,64.460646506417746"/>
        </g>
        <g id="product-6c177fce-76fa-42b0-9fcc-a9d281e4eeba" class="IfcFooting material-null projection" ifc:name="Footing" ifc:guid="1i5t$ETlf2i9$CgTA1vEww">
            <path d="M150.30656860901422,175.46065020518347 L167.30657036526506,175.46065020518347"/>
            <path d="M150.30656921936577,192.46065047370237 L150.30656860901422,175.46065020518347"/>
            <path d="M167.30657036526506,192.46065047370237 L150.30656921936577,192.46065047370237"/>
            <path d="M167.30657036526506,175.46065020518347 L167.30657036526506,192.46065047370237"/>
        </g>
        <g id="product-a8bbd2a0-5522-4e34-bd06-1bb6ecff5aa0" class="IfcFooting material-null projection" ifc:name="Footing" ifc:guid="2ekzAWLI9EDBq66xRi$rgW">
            <path d="M227.30655544383836,175.46065020518347 L244.30655720008917,175.46065020518347"/>
            <path d="M227.30655605418988,192.46065047370237 L227.30655544383836,175.46065020518347"/>
            <path d="M244.30655720008917,192.46065047370237 L227.30655605418988,192.46065047370237"/>
            <path d="M244.30655720008917,175.46065020518347 L244.30655720008917,192.46065047370237"/>
        </g>
        <g id="product-e05f0a29-dbff-4c3d-b75c-b7b163c93280" class="IfcColumn material-concrete projection" ifc:name="Column" ifc:guid="3WNmefs$zCFRTSjx5ZoJA0">
            <path d="M233.30656583829179,186.4606514088992 L238.30656572653308,186.4606514088992"/>
            <path d="M238.30656572653308,186.4606514088992 L238.30656572653308,181.4606515206579"/>
            <path d="M238.30656572653308,181.4606515206579 L233.30656583829179,181.4606515206579"/>
            <path d="M233.30656583829179,181.4606515206579 L233.30656583829179,186.4606514088992"/>
        </g>
        <g id="product-84e70f4c-01ca-4d48-a82d-54a088300e91" class="IfcColumn material-concrete projection" ifc:name="Column" ifc:guid="24vmzC0SfDIAWjLA28C0wH">
            <path d="M156.30656946672485,186.4606514088992 L161.30656935496614,186.4606514088992"/>
            <path d="M161.30656935496614,186.4606514088992 L161.30656935496614,181.4606515206579"/>
            <path d="M161.30656935496614,181.4606515206579 L156.30656946672485,181.4606515206579"/>
            <path d="M156.30656946672485,181.4606515206579 L156.30656946672485,186.4606514088992"/>
        </g>
        <g id="product-5467ea42-e6c6-48b7-b721-30b2d2f7923b" class="IfcColumn material-concrete projection" ifc:name="Column" ifc:guid="1KP_f2viP8jxSXCBBIzv8x">
            <path d="M233.30656583829179,116.46065297352102 L238.30656572653308,116.46065297352102"/>
            <path d="M238.30656572653308,116.46065297352102 L238.30656572653308,111.46065308527973"/>
            <path d="M238.30656572653308,111.46065308527973 L233.30656583829179,111.46065308527973"/>
            <path d="M233.30656583829179,111.46065308527973 L233.30656583829179,116.46065297352102"/>
        </g>
        <g id="product-743e821b-31af-44c2-9abe-a41f543e1bdf" class="IfcColumn material-concrete projection" ifc:name="Column" ifc:guid="1qFe8RCQz4mfg_f1zKFXlV">
            <path d="M156.30656946672485,116.46065297352102 L161.30656935496614,116.46065297352102"/>
            <path d="M161.30656935496614,116.46065297352102 L161.30656935496614,111.46065308527973"/>
            <path d="M161.30656935496614,111.46065308527973 L156.30656946672485,111.46065308527973"/>
            <path d="M156.30656946672485,111.46065308527973 L156.30656946672485,116.46065297352102"/>
        </g>
        <g id="product-8e553809-8cfb-454c-b70e-e098d56fd16b" class="IfcColumn material-concrete projection" ifc:name="Column" ifc:guid="2ELJW9ZFj5JBSEu9ZLRz5h">
            <path d="M233.30656583829179,69.460646394659037 L238.30656572653308,69.460646394659037"/>
            <path d="M238.30656572653308,69.460646394659037 L238.30656572653308,64.460646506417746"/>
            <path d="M238.30656572653308,64.460646506417746 L233.30656583829179,64.460646506417746"/>
            <path d="M233.30656583829179,64.460646506417746 L233.30656583829179,69.460646394659037"/>
        </g>
        <g id="product-39364b0f-2c80-4be0-a04f-b9e9734e40b9" class="IfcColumn material-concrete projection" ifc:name="Column" ifc:guid="0vDaiFB81BuA1FkUbpJa2v">
            <path d="M156.30656946672485,69.460646394659037 L161.30656935496614,69.460646394659037"/>
            <path d="M161.30656935496614,69.460646394659037 L161.30656935496614,64.460646506417746"/>
            <path d="M161.30656935496614,64.460646506417746 L156.30656946672485,64.460646506417746"/>
            <path d="M156.30656946672485,64.460646506417746 L156.30656946672485,69.460646394659037"/>
        </g>
        <g id="product-e9d00cb3-dbb1-42a4-a3bf-b181777880d4" class="IfcColumn material-concrete projection" ifc:name="Column" ifc:guid="3fq0opsx52fAE$iO5tU83K">
            <path d="M66.306559557452871,116.46065297352102 L71.306559445694162,116.46065297352102"/>
            <path d="M71.306559445694162,116.46065297352102 L71.306559445694162,111.46065308527973"/>
            <path d="M71.306559445694162,111.46065308527973 L66.306559557452871,111.46065308527973"/>
            <path d="M66.306559557452871,111.46065308527973 L66.306559557452871,116.46065297352102"/>
        </g>
        <g id="product-82ab8364-8641-447d-afcf-d759c9ac4dfc" class="IfcColumn material-concrete projection" ifc:name="Column" ifc:guid="22guDaXa54VQ$Frrd9h4ty">
            <path d="M66.306559557452871,69.460646394659037 L71.306559445694162,69.460646394659037"/>
            <path d="M71.306559445694162,69.460646394659037 L71.306559445694162,64.460646506417746"/>
            <path d="M71.306559445694162,64.460646506417746 L66.306559557452871,64.460646506417746"/>
            <path d="M66.306559557452871,64.460646506417746 L66.306559557452871,69.460646394659037"/>
        </g>
        <g id="product-ae670c08-06aa-49c7-afdd-98be8f266406" class="IfcWindow material-null projection" ifc:name="Window" ifc:guid="2kPmm81gf9nw$TcBwF9cG6">
            <path d="M153.80655945180368,64.210647961590226 L134.80656422524152,64.210647961590226"/>
            <path d="M153.80655945180368,64.010648118648461 L134.80656422524152,64.010648118648461"/>
            <path d="M134.30656232906878,63.360640427488789 L134.80656422524152,63.360640427488789"/>
            <path d="M134.30656232906878,64.460654135811666 L134.30656232906878,64.460646943531557"/>
            <path d="M134.30656232906878,63.460646965883321 L134.30656232906878,63.360640427488789"/>
            <path d="M134.80656422524152,64.860655652749898 L134.30656232906878,64.860655652749898"/>
            <path d="M154.30656188203395,64.860655652749898 L153.80655945180368,64.860655652749898"/>
            <path d="M154.30656188203395,63.360640427488789 L154.30656188203395,63.460646091655782"/>
            <path d="M154.30656188203395,64.460646069303991 L154.30656188203395,64.460654135811623"/>
            <path d="M153.80655945180368,63.360640427488789 L154.30656188203395,63.360640427488789"/>
            <path d="M153.80655945180368,64.860655652749898 L153.80655945180368,63.360640427488789"/>
            <path d="M134.80656422524152,64.860655652749898 L153.80655945180368,64.860655652749898"/>
            <path d="M134.80656422524152,63.360640427488789 L134.80656422524152,64.860655652749898"/>
            <path d="M153.80655945180368,63.360640427488789 L134.80656422524152,63.360640427488789"/>
        </g>
        <g id="product-7149f8c0-338d-493a-85d3-c9d75d6a9db9" class="IfcWindow material-null projection" ifc:name="Window" ifc:guid="1nIVZ0Cur9EeNJoTTTQfsv">
            <path d="M123.80656965909888,64.210647961590226 L104.80657443253671,64.210647961590226"/>
            <path d="M123.80656965909888,64.010648118648461 L104.80657443253671,64.010648118648461"/>
            <path d="M104.30657253636399,63.360640427488789 L104.80657443253671,63.360640427488789"/>
            <path d="M104.30657253636399,64.460654135811623 L104.30657253636399,64.460646943531557"/>
            <path d="M104.30657253636399,63.460646965883321 L104.30657253636399,63.360640427488789"/>
            <path d="M104.80657443253671,64.860655652749898 L104.30657253636399,64.860655652749898"/>
            <path d="M124.30657208932915,64.860655652749898 L123.80656965909888,64.860655652749898"/>
            <path d="M124.30657208932915,63.360640427488789 L124.30657208932915,63.460646091655711"/>
            <path d="M124.30657208932915,64.460646069303948 L124.30657208932915,64.460654135811623"/>
            <path d="M123.80656965909888,63.360640427488789 L124.30657208932915,63.360640427488789"/>
            <path d="M123.80656965909888,64.860655652749898 L123.80656965909888,63.360640427488789"/>
            <path d="M104.80657443253671,64.860655652749898 L123.80656965909888,64.860655652749898"/>
            <path d="M104.80657443253671,63.360640427488789 L104.80657443253671,64.860655652749898"/>
            <path d="M123.80656965909888,63.360640427488789 L104.80657443253671,63.360640427488789"/>
        </g>
        <g id="product-eaa070fe-8965-4e3b-bd46-a5406ff582ca" class="IfcWindow material-null projection" ifc:name="Window" ifc:guid="3ge73_YMLEExr6fK1lzOBA">
            <path d="M93.806572713836871,64.210647961590226 L74.806577487274694,64.210647961590226"/>
            <path d="M93.806572713836871,64.010648118648461 L74.806577487274694,64.010648118648461"/>
            <path d="M74.306575591101975,63.360640427488789 L74.806577487274694,63.360640427488789"/>
            <path d="M74.306575591101975,64.460654135811623 L74.306575591101975,63.360640427488789"/>
            <path d="M74.806577487274694,64.860655652749898 L74.306575591101975,64.860655652749898"/>
            <path d="M94.306575144067139,64.860655652749898 L93.806572713836871,64.860655652749898"/>
            <path d="M94.306575144067139,63.360640427488789 L94.306575144067139,63.460646091656102"/>
            <path d="M94.306575144067139,64.460646069304346 L94.306575144067139,64.460654135811623"/>
            <path d="M93.806572713836871,63.360640427488789 L94.306575144067139,63.360640427488789"/>
            <path d="M93.806572713836871,64.860655652749898 L93.806572713836871,63.360640427488789"/>
            <path d="M74.806577487274694,64.860655652749898 L93.806572713836871,64.860655652749898"/>
            <path d="M74.806577487274694,63.360640427488789 L74.806577487274694,64.860655652749898"/>
            <path d="M93.806572713836871,63.360640427488789 L74.806577487274694,63.360640427488789"/>
        </g>
        <g id="product-0131105e-5b6c-4369-91b6-31075a8d42a2" class="IfcDoor material- projection" ifc:name="Door" ifc:guid="01CH1UMsn3QP6sCGTQZKAY">
            <path d="M145.49158713106908,144.46065651008627 L145.49158841453334,135.96065694594532"/>
            <path d="M145.84158712473609,144.46065656293479 L145.49158713106908,144.46065651008627"/>
            <path d="M145.84158840820035,135.96065699879387 L145.84158712473609,144.46065656293479"/>
            <path d="M145.49158841453334,135.96065694594532 L145.84158840820035,135.96065699879387"/>
            <path d="M145.49158841453334,135.96065694594532 L145.24158841639598,135.96065690819637"/>
            <path d="M145.49158849003123,135.46065694967061 L145.49158841453334,135.96065694594532"/>
            <path d="M145.24158849189388,135.46065691192166 L145.49158849003123,135.46065694967061"/>
            <path d="M154.24158797681162,135.96065826715852 L154.24158805230951,135.46065827088381"/>
            <path d="M153.99158797867426,135.96065822940957 L154.24158797681162,135.96065826715852"/>
            <path d="M153.99158805417215,135.46065823313486 L153.99158797867426,135.96065822940957"/>
            <path d="M154.24158805230951,135.46065827088381 L153.99158805417215,135.46065823313486"/>
            <path d="M147.62456418666136,127.66655763326706 L145.84158969166458,127.46065743465292"/>
            <path d="M149.32115877443027,128.27428243454133 L147.62456418666136,127.66655763326706"/>
            <path d="M150.87797865370891,129.27788973259288 L149.32115877443027,128.27428243454133"/>
            <path d="M152.18081420250323,130.6185078830903 L150.87797865370891,129.27788973259288"/>
            <path d="M153.1639636386912,132.22852973353125 L152.18081420250323,130.6185078830903"/>
            <path d="M153.77784689815073,134.02676214720157 L153.1639636386912,132.22852973353125"/>
            <path d="M153.99150594922642,135.92252055968558 L153.77784689815073,134.02676214720157"/>
            <path d="M153.79416600116656,137.82020218651198 L153.99150594922642,135.92252055968558"/>
            <path d="M153.19577887504585,139.62410725582691 L153.79416600116656,137.82020218651198"/>
            <path d="M152.22652113506797,141.243265132125 L153.19577887504585,139.62410725582691"/>
            <path d="M150.93527228940337,142.59602195041299 L152.22652113506797,141.243265132125"/>
            <path d="M149.3871498046438,143.61415840717137 L150.93527228940337,142.59602195041299"/>
            <path d="M147.66022524268817,144.24633004859373 L149.3871498046438,143.61415840717137"/>
            <path d="M145.84158712473609,144.46065656293479 L147.66022524268817,144.24633004859373"/>
            <path d="M145.49158969799757,127.46065738180438 L145.84158969166458,127.46065743465292"/>
            <path d="M145.49158841453334,135.96065694594532 L145.49158969799757,127.46065738180438"/>
        </g>
        <g id="product-4423329f-294c-4870-ac7d-40a16db356fd" class="IfcDoor material- projection" ifc:name="Door" ifc:guid="148pAVAKn8SAnzGA5jirRz">
            <path d="M210.21916401431105,105.86065497474706 L210.21916401431105,114.3606545388881"/>
            <path d="M210.56916400797806,105.86065497474706 L210.21916401431105,105.86065497474706"/>
            <path d="M210.56916400797806,114.3606545388881 L210.56916400797806,105.86065497474706"/>
            <path d="M210.21916401431105,114.3606545388881 L210.56916400797806,114.3606545388881"/>
            <path d="M218.46916358031476,114.86065453516281 L218.96916357658947,114.86065453516281"/>
            <path d="M218.46916358031476,114.61065453702545 L218.46916358031476,114.86065453516281"/>
            <path d="M218.71916357845211,114.61065453702545 L218.46916358031476,114.61065453702545"/>
            <path d="M218.71916357845211,114.3606545388881 L218.71916357845211,114.61065453702545"/>
            <path d="M218.96916357658947,114.3606545388881 L218.71916357845211,114.3606545388881"/>
            <path d="M218.96916357658947,114.46065301822452 L218.96916357658947,114.3606545388881"/>
            <path d="M210.4691640124484,114.86065453516281 L209.96916401617369,114.86065453516281"/>
            <path d="M210.4691640124484,114.61065453702545 L210.4691640124484,114.86065453516281"/>
            <path d="M210.21916401431105,114.61065453702545 L210.4691640124484,114.61065453702545"/>
            <path d="M210.21916401431105,114.3606545388881 L210.21916401431105,114.61065453702545"/>
            <path d="M209.96916401617369,114.3606545388881 L210.21916401431105,114.3606545388881"/>
            <path d="M209.96916401617369,114.46065301822453 L209.96916401617369,114.3606545388881"/>
            <path d="M212.15915004861316,106.0239800829447 L210.56916400797806,105.86065497474706"/>
            <path d="M213.6880338173811,106.50767891522334 L212.15915004861316,106.0239800829447"/>
            <path d="M215.3596135616927,107.48401043931837 L213.6880338173811,106.50767891522334"/>
            <path d="M216.7664723010042,108.8403464111493 L215.3596135616927,107.48401043931837"/>
            <path d="M217.83086679740282,110.50173548897779 L216.7664723010042,108.8403464111493"/>
            <path d="M218.49397844156101,112.37636904786216 L217.83086679740282,110.50173548897779"/>
            <path d="M218.71916357845211,114.3606545388881 L218.49397844156101,112.37636904786216"/>
        </g>
        <g id="product-6e3d8a98-080c-41c3-8e07-bd5b2abac018" class="IfcDoor material- projection" ifc:name="Door" ifc:guid="1kFOgO20n1muu7lLigki0O">
            <path d="M145.49159206630964,107.46065341310528 L145.49159206630964,115.96065297724631"/>
            <path d="M145.84159205997662,107.46065341310528 L145.49159206630964,107.46065341310528"/>
            <path d="M145.84159205997662,115.96065297724631 L145.84159205997662,107.46065341310528"/>
            <path d="M145.49159206630964,115.96065297724631 L145.84159205997662,115.96065297724631"/>
            <path d="M153.74159163231332,116.46065297352102 L154.24159162858803,116.46065297352102"/>
            <path d="M153.74159163231332,116.21065297538367 L153.74159163231332,116.46065297352102"/>
            <path d="M153.99159163045067,116.21065297538367 L153.74159163231332,116.21065297538367"/>
            <path d="M153.99159163045067,115.96065297724631 L153.99159163045067,116.21065297538367"/>
            <path d="M154.24159162858803,115.96065297724631 L153.99159163045067,115.96065297724631"/>
            <path d="M145.74159206444699,116.46065297352102 L145.24159206817228,116.46065297352102"/>
            <path d="M145.74159206444699,116.21065297538367 L145.74159206444699,116.46065297352102"/>
            <path d="M145.49159206630964,116.21065297538367 L145.74159206444699,116.21065297538367"/>
            <path d="M145.49159206630964,115.96065297724631 L145.49159206630964,116.21065297538367"/>
            <path d="M145.24159206817228,115.96065297724631 L145.49159206630964,115.96065297724631"/>
            <path d="M147.43157810061172,107.6239785213029 L145.84159205997662,107.46065341310528"/>
            <path d="M148.96046186937966,108.10767735358155 L147.43157810061172,107.6239785213029"/>
            <path d="M150.63204161369129,109.08400887767658 L148.96046186937966,108.10767735358155"/>
            <path d="M152.03890035300279,110.44034484950751 L150.63204161369129,109.08400887767658"/>
            <path d="M153.10329484940138,112.10173392733601 L152.03890035300279,110.44034484950751"/>
            <path d="M153.76640649355957,113.97636748622037 L153.10329484940138,112.10173392733601"/>
            <path d="M153.99159163045067,115.96065297724631 L153.76640649355957,113.97636748622037"/>
        </g>
        <g id="product-f7ba0542-8077-4825-b572-4b60e2a9ce03" class="IfcDoor material- projection" ifc:name="Door" ifc:guid="3tkWL2W7T89RLoIs3YgSu3">
            <path d="M115.45655951163172,107.46065341310528 L115.45655951163172,115.96065297724631"/>
            <path d="M115.80655950529874,107.46065341310528 L115.45655951163172,107.46065341310528"/>
            <path d="M115.80655950529874,115.96065297724631 L115.80655950529874,107.46065341310528"/>
            <path d="M115.45655951163172,115.96065297724631 L115.80655950529874,115.96065297724631"/>
            <path d="M123.70655907763542,116.46065297352102 L124.20655907391013,116.46065297352102"/>
            <path d="M123.70655907763542,116.21065297538367 L123.70655907763542,116.46065297352102"/>
            <path d="M123.95655907577277,116.21065297538367 L123.70655907763542,116.21065297538367"/>
            <path d="M123.95655907577277,115.96065297724631 L123.95655907577277,116.21065297538367"/>
            <path d="M124.20655907391013,115.96065297724631 L123.95655907577277,115.96065297724631"/>
            <path d="M115.70655950976908,116.46065297352102 L115.20655951349438,116.46065297352102"/>
            <path d="M115.70655950976908,116.21065297538367 L115.70655950976908,116.46065297352102"/>
            <path d="M115.45655951163172,116.21065297538367 L115.70655950976908,116.21065297538367"/>
            <path d="M115.45655951163172,115.96065297724631 L115.45655951163172,116.21065297538367"/>
            <path d="M115.20655951349438,115.96065297724631 L115.45655951163172,115.96065297724631"/>
            <path d="M117.39654554593383,107.6239785213029 L115.80655950529874,107.46065341310528"/>
            <path d="M118.92542931470177,108.10767735358155 L117.39654554593383,107.6239785213029"/>
            <path d="M120.59700905901339,109.08400887767658 L118.92542931470177,108.10767735358155"/>
            <path d="M122.00386779832489,110.44034484950751 L120.59700905901339,109.08400887767658"/>
            <path d="M123.0682622947235,112.10173392733601 L122.00386779832489,110.44034484950751"/>
            <path d="M123.73137393888167,113.97636748622037 L123.0682622947235,112.10173392733601"/>
            <path d="M123.95655907577277,115.96065297724631 L123.73137393888167,113.97636748622037"/>
        </g>
        <g id="product-d64ffda1-2953-420c-bca9-b64098b6d3c1" class="IfcDoor material- projection" ifc:name="Door" ifc:guid="3MJ$sXALD23Bofja2OjjF1">
            <path d="M85.456560182183978,107.46065341310528 L85.456560182183978,115.96065297724631"/>
            <path d="M85.80656017585099,107.46065341310528 L85.456560182183978,107.46065341310528"/>
            <path d="M85.80656017585099,115.96065297724631 L85.80656017585099,107.46065341310528"/>
            <path d="M85.456560182183978,115.96065297724631 L85.80656017585099,115.96065297724631"/>
            <path d="M93.706559748187672,116.46065297352102 L94.206559744462382,116.46065297352102"/>
            <path d="M93.706559748187672,116.21065297538367 L93.706559748187672,116.46065297352102"/>
            <path d="M93.956559746325027,116.21065297538367 L93.706559748187672,116.21065297538367"/>
            <path d="M93.956559746325027,115.96065297724631 L93.956559746325027,116.21065297538367"/>
            <path d="M94.206559744462382,115.96065297724631 L93.956559746325027,115.96065297724631"/>
            <path d="M85.706560180321333,116.46065297352102 L85.206560184046637,116.46065297352102"/>
            <path d="M85.706560180321333,116.21065297538367 L85.706560180321333,116.46065297352102"/>
            <path d="M85.456560182183978,116.21065297538367 L85.706560180321333,116.21065297538367"/>
            <path d="M85.456560182183978,115.96065297724631 L85.456560182183978,116.21065297538367"/>
            <path d="M85.206560184046637,115.96065297724631 L85.456560182183978,115.96065297724631"/>
            <path d="M87.396546216486087,107.6239785213029 L85.80656017585099,107.46065341310528"/>
            <path d="M88.925429985254013,108.10767735358155 L87.396546216486087,107.6239785213029"/>
            <path d="M90.597009729565627,109.08400887767658 L88.925429985254013,108.10767735358155"/>
            <path d="M92.003868468877144,110.44034484950751 L90.597009729565627,109.08400887767658"/>
            <path d="M93.06826296527575,112.10173392733601 L92.003868468877144,110.44034484950751"/>
            <path d="M93.731374609433928,113.97636748622037 L93.06826296527575,112.10173392733601"/>
            <path d="M93.956559746325027,115.96065297724631 L93.731374609433928,113.97636748622037"/>
        </g>
        <g id="product-82ab8364-8641-447d-afcf-d759c9ac4dfc-body" class="IfcColumn material-concrete cut" ifc:name="Column" ifc:guid="22guDaXa54VQ$Frrd9h4ty">
            <path d="M66.306559557452871,69.460646394659037 L71.306559445694162,69.460646394659037 L71.306559445694162,64.460646506417746 L66.306559557452871,64.460646506417746 L66.306559557452871,69.460646394659037"/>
        </g>
        <g id="product-e9d00cb3-dbb1-42a4-a3bf-b181777880d4-body" class="IfcColumn material-concrete cut" ifc:name="Column" ifc:guid="3fq0opsx52fAE$iO5tU83K">
            <path d="M66.306559557452871,116.46065297352102 L71.306559445694162,116.46065297352102 L71.306559445694162,111.46065308527973 L66.306559557452871,111.46065308527973 L66.306559557452871,116.46065297352102"/>
        </g>
        <g id="product-39364b0f-2c80-4be0-a04f-b9e9734e40b9-body" class="IfcColumn material-concrete cut" ifc:name="Column" ifc:guid="0vDaiFB81BuA1FkUbpJa2v">
            <path d="M156.30656946672485,69.460646394659037 L161.30656935496614,69.460646394659037 L161.30656935496614,64.460646506417746 L156.30656946672485,64.460646506417746 L156.30656946672485,69.460646394659037"/>
        </g>
        <g id="product-8e553809-8cfb-454c-b70e-e098d56fd16b-body" class="IfcColumn material-concrete cut" ifc:name="Column" ifc:guid="2ELJW9ZFj5JBSEu9ZLRz5h">
            <path d="M233.30656583829179,69.460646394659037 L238.30656572653308,69.460646394659037 L238.30656572653308,64.460646506417746 L233.30656583829179,64.460646506417746 L233.30656583829179,69.460646394659037"/>
        </g>
        <g id="product-743e821b-31af-44c2-9abe-a41f543e1bdf-body" class="IfcColumn material-concrete cut" ifc:name="Column" ifc:guid="1qFe8RCQz4mfg_f1zKFXlV">
            <path d="M156.30656946672485,116.46065297352102 L161.30656935496614,116.46065297352102 L161.30656935496614,111.46065308527973 L156.30656946672485,111.46065308527973 L156.30656946672485,116.46065297352102"/>
        </g>
        <g id="product-5467ea42-e6c6-48b7-b721-30b2d2f7923b-body" class="IfcColumn material-concrete cut" ifc:name="Column" ifc:guid="1KP_f2viP8jxSXCBBIzv8x">
            <path d="M233.30656583829179,116.46065297352102 L238.30656572653308,116.46065297352102 L238.30656572653308,111.46065308527973 L233.30656583829179,111.46065308527973 L233.30656583829179,116.46065297352102"/>
        </g>
        <g id="product-84e70f4c-01ca-4d48-a82d-54a088300e91-body" class="IfcColumn material-concrete cut" ifc:name="Column" ifc:guid="24vmzC0SfDIAWjLA28C0wH">
            <path d="M156.30656946672485,186.4606514088992 L161.30656935496614,186.4606514088992 L161.30656935496614,181.4606515206579 L156.30656946672485,181.4606515206579 L156.30656946672485,186.4606514088992"/>
        </g>
        <g id="product-e05f0a29-dbff-4c3d-b75c-b7b163c93280-body" class="IfcColumn material-concrete cut" ifc:name="Column" ifc:guid="3WNmefs$zCFRTSjx5ZoJA0">
            <path d="M233.30656583829179,186.4606514088992 L238.30656572653308,186.4606514088992 L238.30656572653308,181.4606515206579 L233.30656583829179,181.4606515206579 L233.30656583829179,186.4606514088992"/>
        </g>
        <g id="product-c29dbb4f-80bf-4ba9-9210-cea0faa4443b-body" class="IfcRailing material-null cut" ifc:name="Railing" ifc:guid="32dRjFWBzBgP8Gpg3wf4Gx">
            <path d="M193.65655926620107,97.272712261422228 L193.35655896773079,97.272712248308792 L193.35655912412014,93.69494088977342 L193.35655961368803,82.494933663306469 L193.3565591664609,79.410673478338779 L192.45655731767889,79.410673438998415 L192.45655733079229,79.110673445703924 L193.5065594530902,79.110673491601005 L193.50655944653346,79.260673488248173 L193.50655943997677,79.410673484895497 L193.35655916646095,79.410673478338751 L193.35655914471045,79.260673481691498 L193.50655944653349,79.260673488248173 L193.65655944318073,79.260673494804891 L193.65655930180671,82.49493367641989 L193.65655942259042,93.694940902886842 L193.65655926620104,97.272712261422285 M193.35655912412014,93.69494088977342 L193.65655942259042,93.69494090288687 M193.65655930180674,82.494933676419848 L193.35655961368803,82.494933663306426"/>
        </g>
        <g id="product-0e1c6ee7-8e83-4b02-929a-1f6ce2a93312-body" class="IfcStairFlight material-null cut" ifc:name="StairFlight" ifc:guid="0E76xdZeDB0fAQ7spYgJCI">
            <path d="M206.3065591364977,80.516238286461515 L206.30655907951228,85.294939558801218 L193.8065605796121,85.294939409740195 L193.80656063659757,80.516238137400492 L206.30655913649773,80.516238286461487"/>
        </g>
        <g id="product-cf9e4c67-3a7f-48da-bbb3-fdf720023188-body" class="IfcWindow material-null cut" ifc:name="Window" ifc:guid="3FdandEdz8shkp$VSW0Z68">
            <path d="M65.456475714705249,125.96065117231484 L65.456478428696357,120.96065246663028 L65.656497192536136,120.96065252941948 L65.656494554838957,125.96065123510404 L65.456475714705249,125.96065117231485"/>
            <path d="M66.306502289701299,120.96065395416989 L64.806483934780886,120.96065348328941 L64.806484091740074,120.46065044270753 L66.306502446660488,120.46065091358801 L66.306502289701299,120.96065395416987 M66.306499495044974,126.46065560506844 L64.806481151269864,126.46065513418797 L64.806481308229408,125.9606509682709 L66.306499652004518,125.96065143915135 L66.306499495044974,126.46065560506845"/>
        </g>
        <g id="product-e0abf0ac-e582-4c82-ba2e-60cf19e038cb-body" class="IfcCovering material-fin cut" ifc:name="Covering" ifc:guid="3Wg$2ivO9CWhekOCyPu3ZB">
            <path d="M156.30656946672485,64.460646506417746 L156.30656946672485,63.46064652876948 L238.30658493957964,63.46064652876948 L238.30658493957964,64.460646506417746 L156.30656946672485,64.460646506417746"/>
        </g>
        <g id="product-b5163419-3657-4f93-83f1-f11f85720b1a-body" class="IfcCovering material-fin cut" ifc:name="Covering" ifc:guid="2r5ZGPDbTFauFnyH_5SWiQ">
            <path d="M238.30658480001964,63.460642714071604 L238.30658480001966,63.460642714071604 Z"/><path d="M238.30658480001966,63.460642714071604 L238.30654680003968,136.4605189074703 L239.3065467776878,136.46051942801884 L239.30658477766775,63.460643234620136 Z"/></g>
        <g id="product-c1076c31-fa42-4f00-aea7-9a0f5a749998-body" class="IfcCovering material-null cut" ifc:name="Covering" ifc:guid="311smn_a9F0AwdcWzQT9cO">
            <path d="M124.30657155875066,63.46064609165564 L124.30657155875066,63.46064652876948 Z"/><path d="M94.3065710085998,63.46064609165571 L94.3065710085998,64.46064606930395 L104.3065732264886,64.46064650641775 L104.3065732264886,63.46064696588332 L94.30657100859982,63.46064652876948 Z"/><path d="M156.30657635436998,63.46064652876948 L154.30656135145554,63.46064609165564 L154.30656135145554,64.46064650641775 L156.30657635436998,64.46064650641775 Z"/><path d="M66.30655717326712,63.46064652876948 L66.30655717326712,64.46064650641775 L74.30657511774395,64.46064650641775 L74.30657511774396,63.460646965883285 Z"/><path d="M124.30657155875066,63.46064652876948 L124.30657155875066,64.46064606930392 L134.30656301919348,64.46064650641775 L134.30656301919345,63.46064696588332 Z"/></g>
        <g id="product-a87774ba-e9ff-4eb2-a94c-256c7896b4c3-body" class="IfcCovering material-null cut" ifc:name="Covering" ifc:guid="2eTtIwwVzEigbC9MnubhJ3">
            <path d="M156.30655039323926,136.46066206322897 L156.30655000382492,137.46066204087714 L154.49158232830717,137.46066133410267 L154.49158232830715,136.46066135645432 L156.30655039323926,136.46066206322897 M65.306537000780324,136.4606266265163 L144.99158559240641,136.46065765701911 L144.99158559240638,137.46065763466746 L65.306536611365971,137.4606266041645 L65.306537000780324,136.4606266265163"/>
        </g>
        <g id="product-d0c67aa8-8a88-42eb-96a8-ec2ae37d5a8d-body" class="IfcCovering material-null cut" ifc:name="Covering" ifc:guid="3GndgeYeX2wvQex2hZVLgD">
            <path d="M239.30655029439686,137.4605189897334 L239.30655029439689,137.4605189897334 Z"/><path d="M239.30655029439686,137.4605189897334 L239.30655044539267,136.46051901168323 L156.27713875156203,136.4605064749925 L156.27713860056622,137.46050645264074 Z"/></g>
        <g id="product-d8cd0d6c-8ebb-43f0-81a6-66272378161a-body" class="IfcCovering material-null cut" ifc:name="Covering" ifc:guid="3OpGriZhj3y86cPYSZU1OQ">
            <path d="M66.306535715595516,136.46062391625782 L65.3065357379473,136.46062360234134 L65.30653887710335,126.46065129290159 L66.306540253515763,126.46065239757398 L66.306535715595516,136.46062391625782 M66.30655863149201,63.460643210507264 L66.306540738251257,120.46064886957357 L65.306540061221071,120.46064776490115 L65.306558653843794,63.46064289659077 L66.30655863149201,63.460643210507264"/>
        </g>
        <g ifc:guid="3Wg$2ivO9CWhekOCyPu3ZB" ifc:name="Covering" ifc:layer-id="12452" class="IfcCovering material-fin IfcMaterialLayer layer-material-001 cut"><path d="M220.81324577331543,64.46064694722493 L238.3065891265869,64.46064694722493 L238.3065891265869,63.67398007710774 L238.3065891265869,63.460643132527665 L173.79990577697754,63.460643132527665 L156.30657196044922,63.460643132527665 L156.30657196044922,64.24731000264485 L156.30657196044922,64.46064694722493 Z"/></g><g ifc:guid="2r5ZGPDbTFauFnyH_5SWiQ" ifc:name="Covering" ifc:layer-id="12452" class="IfcCovering material-fin IfcMaterialLayer layer-material-001 cut"><path d="M238.30655097961426,120.88721021016438 L238.30655097961426,136.46052106221515 L239.09321784973145,136.46052106221515 L239.30655479431152,136.46052106221515 L239.30657386779785,79.03395398457845 L239.30659294128418,63.460643132527665 L238.519926071167,63.460643132527665 L238.3065891265869,63.460643132527665 Z"/></g><g ifc:guid="311smn_a9F0AwdcWzQT9cO" ifc:name="Covering" ifc:layer-id="18406" class="IfcCovering material-null IfcMaterialLayer layer-material-wood cut"><path d="M154.66553688049316,63.460643132527665 L154.30655479431152,63.460643132527665 L154.30655479431152,63.9273141225179 L154.30655479431152,64.46064694722493 L154.66553688049316,64.46064694722493 L156.30658149719238,64.46064694722493 L156.30658149719238,63.79397137959798 L156.30658149719238,63.460643132527665 Z"/><path d="M134.3065643310547,63.460643132527665 L128.97323608398438,63.460643132527665 L124.30657386779785,63.460643132527665 L124.30657386779785,63.9273141225179 L124.30657386779785,64.46064694722493 L128.97323608398438,64.46064694722493 L134.3065643310547,64.46064694722493 L134.3065643310547,63.9273141225179 Z"/><path d="M104.30657386779785,63.460643132527665 L98.97324085235596,63.460643132527665 L94.30657386779785,63.460643132527665 L94.30657386779785,63.9273141225179 L94.30657386779785,64.46064694722493 L98.97324085235596,64.46064694722493 L104.30657386779785,64.46064694722493 L104.30657386779785,63.9273141225179 Z"/><path d="M74.30657386779785,63.460643132527665 L71.63990497589111,63.460643132527665 L66.30656242370605,63.460643132527665 L66.30656242370605,63.79397137959798 L66.30656242370605,64.46064694722493 L71.63990497589111,64.46064694722493 L74.30657386779785,64.46064694722493 L74.30657386779785,63.9273141225179 Z"/></g><g ifc:guid="2eTtIwwVzEigbC9MnubhJ3" ifc:name="Covering" ifc:layer-id="18406" class="IfcCovering material-null IfcMaterialLayer layer-material-wood cut"><path d="M65.30653953552246,136.79396375020343 L65.30653953552246,137.46062978108722 L128.26756477355957,137.46064885457355 L144.9915885925293,137.4606583913167 L144.9915885925293,137.2507832845052 L144.9915885925293,136.4606641133626 L128.26756477355957,136.46065457661945 L65.30653953552246,136.46062596638996 Z"/><path d="M154.49158668518066,137.46066792805988 L154.87250328063965,137.46066792805988 L156.3065528869629,137.46066792805988 L156.3065528869629,137.1273301442464 L156.3065528869629,136.4606641133626 L154.87250328063965,136.4606641133626 L154.49158668518066,136.4606641133626 L154.49158668518066,136.67053922017413 Z"/></g><g ifc:guid="3GndgeYeX2wvQex2hZVLgD" ifc:name="Covering" ifc:layer-id="18406" class="IfcCovering material-null IfcMaterialLayer layer-material-wood cut"><path d="M219.74621772766113,137.46051534016925 L235.5970287322998,137.46051534016925 L239.30655479431152,137.46052487691242 L239.30655479431152,137.2696183522542 L239.30655479431152,136.46052106221515 L236.18460655212402,136.46052106221515 L217.95863151550293,136.46052106221515 L156.27714157104492,136.460511525472 L156.27714157104492,136.9967435201009 L156.27714157104492,137.4605058034261 Z"/></g><g ifc:guid="3OpGriZhj3y86cPYSZU1OQ" ifc:name="Covering" ifc:layer-id="18406" class="IfcCovering material-null IfcMaterialLayer layer-material-wood cut"><path d="M65.30655860900879,63.460643132527665 L65.30655860900879,82.4606393178304 L65.30653953552246,120.4606507619222 L65.97320556640625,120.4606507619222 L66.30654335021973,120.4606507619222 L66.30654335021973,101.46065457661946 L66.30656242370605,63.460643132527665 L65.97322463989258,63.460643132527665 Z"/><path d="M65.97320556640625,126.46065457661946 L65.30653953552246,126.46065457661946 L65.30653953552246,133.12730534871417 L65.30653953552246,136.46062596638996 L65.63986778259277,136.46062596638996 L66.30653381347656,136.46062596638996 L66.30653381347656,133.12730534871417 L66.30654335021973,126.46065457661946 Z"/></g><g class="2LQiPVCvvCkgWUpEjFl$fK IfcWall 2lcmIMh2v3Cv3FGmf0sZfv 0kCMs60nT87PDrUWPPikU$ 34ASPe1n94uwEZkrishKqK cut 0PsKKtId57ZgtoMoCyiklh material-concrete 15Zz$QNdXFcPuVnlEwaX3z 3RHdz3imb3IPBIm_Eklz15 3cLNna5tH5Qxih4sSU_MB8 2$kWHw$6fEEBX_ZJ3uw1Lr 0gYX31J6v1weuMYx19cPMF 3fLVQhQmv7T9pWm4Y5kP2T 2myKEpj0b3eeAj_I36NyT8 144r8EDUHAswhEadAmMHcp 1DXp$5DybFcxExl4luHNUt 0Nk5vioQ5CKAFXL_e1pvLc"><path d="M71.307,64.461 L71.307,66.461 L74.307,66.461 L74.307,64.461 Z"/></g><g class="2LQiPVCvvCkgWUpEjFl$fK IfcWall 2lcmIMh2v3Cv3FGmf0sZfv 0kCMs60nT87PDrUWPPikU$ 34ASPe1n94uwEZkrishKqK cut 0PsKKtId57ZgtoMoCyiklh material-concrete 15Zz$QNdXFcPuVnlEwaX3z 3RHdz3imb3IPBIm_Eklz15 3cLNna5tH5Qxih4sSU_MB8 2$kWHw$6fEEBX_ZJ3uw1Lr 0gYX31J6v1weuMYx19cPMF 3fLVQhQmv7T9pWm4Y5kP2T 2myKEpj0b3eeAj_I36NyT8 144r8EDUHAswhEadAmMHcp 1DXp$5DybFcxExl4luHNUt 0Nk5vioQ5CKAFXL_e1pvLc"><path d="M96.307,114.461 L94.207,114.461 L94.207,116.461 L115.207,116.461 L115.207,114.461 L98.307,114.461 L98.307,66.461 L104.307,66.461 L104.307,64.461 L94.307,64.461 L94.307,66.461 L96.307,66.461 Z"/></g><g class="2LQiPVCvvCkgWUpEjFl$fK IfcWall 2lcmIMh2v3Cv3FGmf0sZfv 0kCMs60nT87PDrUWPPikU$ 34ASPe1n94uwEZkrishKqK cut 0PsKKtId57ZgtoMoCyiklh material-concrete 15Zz$QNdXFcPuVnlEwaX3z 3RHdz3imb3IPBIm_Eklz15 3cLNna5tH5Qxih4sSU_MB8 2$kWHw$6fEEBX_ZJ3uw1Lr 0gYX31J6v1weuMYx19cPMF 3fLVQhQmv7T9pWm4Y5kP2T 2myKEpj0b3eeAj_I36NyT8 144r8EDUHAswhEadAmMHcp 1DXp$5DybFcxExl4luHNUt 0Nk5vioQ5CKAFXL_e1pvLc"><path d="M124.307,66.461 L126.307,66.461 L126.307,114.461 L124.207,114.461 L124.207,116.461 L145.242,116.461 L145.242,114.461 L128.307,114.461 L128.307,66.461 L134.307,66.461 L134.307,64.461 L124.307,64.461 Z"/></g><g class="2LQiPVCvvCkgWUpEjFl$fK IfcWall 2lcmIMh2v3Cv3FGmf0sZfv 0kCMs60nT87PDrUWPPikU$ 34ASPe1n94uwEZkrishKqK cut 0PsKKtId57ZgtoMoCyiklh material-concrete 15Zz$QNdXFcPuVnlEwaX3z 3RHdz3imb3IPBIm_Eklz15 3cLNna5tH5Qxih4sSU_MB8 2$kWHw$6fEEBX_ZJ3uw1Lr 0gYX31J6v1weuMYx19cPMF 3fLVQhQmv7T9pWm4Y5kP2T 2myKEpj0b3eeAj_I36NyT8 144r8EDUHAswhEadAmMHcp 1DXp$5DybFcxExl4luHNUt 0Nk5vioQ5CKAFXL_e1pvLc"><path d="M68.307,69.461 L66.307,69.461 L66.307,111.461 L68.307,111.461 Z"/></g><g class="2LQiPVCvvCkgWUpEjFl$fK IfcWall 2lcmIMh2v3Cv3FGmf0sZfv 0kCMs60nT87PDrUWPPikU$ 34ASPe1n94uwEZkrishKqK cut 0PsKKtId57ZgtoMoCyiklh material-concrete 15Zz$QNdXFcPuVnlEwaX3z 3RHdz3imb3IPBIm_Eklz15 3cLNna5tH5Qxih4sSU_MB8 2$kWHw$6fEEBX_ZJ3uw1Lr 0gYX31J6v1weuMYx19cPMF 3fLVQhQmv7T9pWm4Y5kP2T 2myKEpj0b3eeAj_I36NyT8 144r8EDUHAswhEadAmMHcp 1DXp$5DybFcxExl4luHNUt 0Nk5vioQ5CKAFXL_e1pvLc"><path d="M85.207,116.461 L85.207,114.461 L71.307,114.461 L71.307,116.461 Z"/></g><g class="2LQiPVCvvCkgWUpEjFl$fK IfcWall 2lcmIMh2v3Cv3FGmf0sZfv 0kCMs60nT87PDrUWPPikU$ 34ASPe1n94uwEZkrishKqK cut 0PsKKtId57ZgtoMoCyiklh material-concrete 15Zz$QNdXFcPuVnlEwaX3z 3RHdz3imb3IPBIm_Eklz15 3cLNna5tH5Qxih4sSU_MB8 2$kWHw$6fEEBX_ZJ3uw1Lr 0gYX31J6v1weuMYx19cPMF 3fLVQhQmv7T9pWm4Y5kP2T 2myKEpj0b3eeAj_I36NyT8 144r8EDUHAswhEadAmMHcp 1DXp$5DybFcxExl4luHNUt 0Nk5vioQ5CKAFXL_e1pvLc"><path d="M154.242,116.461 L156.307,116.461 L156.307,114.461 L154.242,114.461 Z"/></g><g class="2LQiPVCvvCkgWUpEjFl$fK IfcWall 2lcmIMh2v3Cv3FGmf0sZfv 0kCMs60nT87PDrUWPPikU$ 34ASPe1n94uwEZkrishKqK cut 0PsKKtId57ZgtoMoCyiklh material-concrete 15Zz$QNdXFcPuVnlEwaX3z 3RHdz3imb3IPBIm_Eklz15 3cLNna5tH5Qxih4sSU_MB8 2$kWHw$6fEEBX_ZJ3uw1Lr 0gYX31J6v1weuMYx19cPMF 3fLVQhQmv7T9pWm4Y5kP2T 2myKEpj0b3eeAj_I36NyT8 144r8EDUHAswhEadAmMHcp 1DXp$5DybFcxExl4luHNUt 0Nk5vioQ5CKAFXL_e1pvLc"><path d="M66.307,116.461 L66.307,120.461 L68.307,120.461 L68.307,116.461 Z"/></g><g class="2LQiPVCvvCkgWUpEjFl$fK IfcWall 2lcmIMh2v3Cv3FGmf0sZfv 0kCMs60nT87PDrUWPPikU$ 34ASPe1n94uwEZkrishKqK cut 0PsKKtId57ZgtoMoCyiklh material-concrete 15Zz$QNdXFcPuVnlEwaX3z 3RHdz3imb3IPBIm_Eklz15 3cLNna5tH5Qxih4sSU_MB8 2$kWHw$6fEEBX_ZJ3uw1Lr 0gYX31J6v1weuMYx19cPMF 3fLVQhQmv7T9pWm4Y5kP2T 2myKEpj0b3eeAj_I36NyT8 144r8EDUHAswhEadAmMHcp 1DXp$5DybFcxExl4luHNUt 0Nk5vioQ5CKAFXL_e1pvLc"><path d="M68.307,126.461 L66.307,126.461 L66.307,136.461 L68.307,136.461 L145.242,136.461 L145.242,134.461 L68.307,134.461 Z"/></g><g class="2LQiPVCvvCkgWUpEjFl$fK IfcWall 2lcmIMh2v3Cv3FGmf0sZfv 0kCMs60nT87PDrUWPPikU$ 34ASPe1n94uwEZkrishKqK cut 0PsKKtId57ZgtoMoCyiklh material-concrete 15Zz$QNdXFcPuVnlEwaX3z 3RHdz3imb3IPBIm_Eklz15 3cLNna5tH5Qxih4sSU_MB8 2$kWHw$6fEEBX_ZJ3uw1Lr 0gYX31J6v1weuMYx19cPMF 3fLVQhQmv7T9pWm4Y5kP2T 2myKEpj0b3eeAj_I36NyT8 144r8EDUHAswhEadAmMHcp 1DXp$5DybFcxExl4luHNUt 0Nk5vioQ5CKAFXL_e1pvLc"><path d="M154.307,64.461 L154.307,66.461 L156.307,66.461 L156.307,64.461 Z"/></g><g class="2LQiPVCvvCkgWUpEjFl$fK IfcWall 2lcmIMh2v3Cv3FGmf0sZfv 0kCMs60nT87PDrUWPPikU$ 34ASPe1n94uwEZkrishKqK cut 0PsKKtId57ZgtoMoCyiklh material-concrete 15Zz$QNdXFcPuVnlEwaX3z 3RHdz3imb3IPBIm_Eklz15 3cLNna5tH5Qxih4sSU_MB8 2$kWHw$6fEEBX_ZJ3uw1Lr 0gYX31J6v1weuMYx19cPMF 3fLVQhQmv7T9pWm4Y5kP2T 2myKEpj0b3eeAj_I36NyT8 144r8EDUHAswhEadAmMHcp 1DXp$5DybFcxExl4luHNUt 0Nk5vioQ5CKAFXL_e1pvLc"><path d="M206.307,66.461 L206.307,116.461 L208.307,116.461 L209.969,116.461 L209.969,114.461 L208.307,114.461 L208.307,81.461 L236.307,81.461 L236.307,111.461 L238.307,111.461 L238.307,69.461 L236.307,69.461 L236.307,79.461 L223.307,79.461 L223.307,66.461 L233.307,66.461 L233.307,64.461 L161.307,64.461 L161.307,66.461 Z M221.307,79.461 L208.307,79.461 L208.307,66.461 L221.307,66.461 Z"/></g><g class="2LQiPVCvvCkgWUpEjFl$fK IfcWall 2lcmIMh2v3Cv3FGmf0sZfv 0kCMs60nT87PDrUWPPikU$ 34ASPe1n94uwEZkrishKqK cut 0PsKKtId57ZgtoMoCyiklh material-concrete 15Zz$QNdXFcPuVnlEwaX3z 3RHdz3imb3IPBIm_Eklz15 3cLNna5tH5Qxih4sSU_MB8 2$kWHw$6fEEBX_ZJ3uw1Lr 0gYX31J6v1weuMYx19cPMF 3fLVQhQmv7T9pWm4Y5kP2T 2myKEpj0b3eeAj_I36NyT8 144r8EDUHAswhEadAmMHcp 1DXp$5DybFcxExl4luHNUt 0Nk5vioQ5CKAFXL_e1pvLc"><path d="M158.307,69.461 L156.307,69.461 L156.307,111.461 L158.307,111.461 Z"/></g><g class="2LQiPVCvvCkgWUpEjFl$fK IfcWall 2lcmIMh2v3Cv3FGmf0sZfv 0kCMs60nT87PDrUWPPikU$ 34ASPe1n94uwEZkrishKqK cut 0PsKKtId57ZgtoMoCyiklh material-concrete 15Zz$QNdXFcPuVnlEwaX3z 3RHdz3imb3IPBIm_Eklz15 3cLNna5tH5Qxih4sSU_MB8 2$kWHw$6fEEBX_ZJ3uw1Lr 0gYX31J6v1weuMYx19cPMF 3fLVQhQmv7T9pWm4Y5kP2T 2myKEpj0b3eeAj_I36NyT8 144r8EDUHAswhEadAmMHcp 1DXp$5DybFcxExl4luHNUt 0Nk5vioQ5CKAFXL_e1pvLc"><path d="M218.969,116.461 L233.307,116.461 L233.307,114.461 L218.969,114.461 Z"/></g><g class="2LQiPVCvvCkgWUpEjFl$fK IfcWall 2lcmIMh2v3Cv3FGmf0sZfv 0kCMs60nT87PDrUWPPikU$ 34ASPe1n94uwEZkrishKqK cut 0PsKKtId57ZgtoMoCyiklh material-concrete 15Zz$QNdXFcPuVnlEwaX3z 3RHdz3imb3IPBIm_Eklz15 3cLNna5tH5Qxih4sSU_MB8 2$kWHw$6fEEBX_ZJ3uw1Lr 0gYX31J6v1weuMYx19cPMF 3fLVQhQmv7T9pWm4Y5kP2T 2myKEpj0b3eeAj_I36NyT8 144r8EDUHAswhEadAmMHcp 1DXp$5DybFcxExl4luHNUt 0Nk5vioQ5CKAFXL_e1pvLc"><path d="M154.242,136.461 L238.307,136.461 L238.307,134.461 L238.307,116.461 L236.307,116.461 L236.307,134.461 L154.242,134.461 Z"/></g><g class="0kCMs60nT87PDrUWPPikU$ 0PsKKtId57ZgtoMoCyiklh 3RHdz3imb3IPBIm_Eklz15 3fLVQhQmv7T9pWm4Y5kP2T layer-material-Unknown 34ASPe1n94uwEZkrishKqK material-concrete 2LQiPVCvvCkgWUpEjFl$fK IfcWall 2lcmIMh2v3Cv3FGmf0sZfv 15Zz$QNdXFcPuVnlEwaX3z 2$kWHw$6fEEBX_ZJ3uw1Lr IfcMaterialLayer 2myKEpj0b3eeAj_I36NyT8 0Nk5vioQ5CKAFXL_e1pvLc cut 3cLNna5tH5Qxih4sSU_MB8 0gYX31J6v1weuMYx19cPMF 144r8EDUHAswhEadAmMHcp 1DXp$5DybFcxExl4luHNUt"><path d="M71.307,66.461 L73.307,66.461 L74.307,66.461 L74.307,65.527 L74.307,64.461 L73.307,64.461 L71.307,64.461 L71.307,65.527 Z"/></g><g class="0kCMs60nT87PDrUWPPikU$ 0PsKKtId57ZgtoMoCyiklh 3RHdz3imb3IPBIm_Eklz15 3fLVQhQmv7T9pWm4Y5kP2T layer-material-Unknown 34ASPe1n94uwEZkrishKqK material-concrete 2LQiPVCvvCkgWUpEjFl$fK IfcWall 2lcmIMh2v3Cv3FGmf0sZfv 15Zz$QNdXFcPuVnlEwaX3z 2$kWHw$6fEEBX_ZJ3uw1Lr IfcMaterialLayer 2myKEpj0b3eeAj_I36NyT8 0Nk5vioQ5CKAFXL_e1pvLc cut 3cLNna5tH5Qxih4sSU_MB8 0gYX31J6v1weuMYx19cPMF 144r8EDUHAswhEadAmMHcp 1DXp$5DybFcxExl4luHNUt"><path d="M96.307,66.461 L96.307,88.722 L96.307,114.461 L94.207,114.461 L94.207,116.061 L94.207,116.461 L111.007,116.461 L115.207,116.461 L115.207,114.861 L115.207,114.461 L111.007,114.461 L98.307,114.461 L98.307,92.2 L98.307,66.461 L99.64,66.461 L104.307,66.461 L104.307,65.527 L104.307,64.461 L99.64,64.461 L94.307,64.461 L94.307,65.394 L94.307,66.461 Z"/></g><g class="0kCMs60nT87PDrUWPPikU$ 0PsKKtId57ZgtoMoCyiklh 3RHdz3imb3IPBIm_Eklz15 3fLVQhQmv7T9pWm4Y5kP2T layer-material-Unknown 34ASPe1n94uwEZkrishKqK material-concrete 2LQiPVCvvCkgWUpEjFl$fK IfcWall 2lcmIMh2v3Cv3FGmf0sZfv 15Zz$QNdXFcPuVnlEwaX3z 2$kWHw$6fEEBX_ZJ3uw1Lr IfcMaterialLayer 2myKEpj0b3eeAj_I36NyT8 0Nk5vioQ5CKAFXL_e1pvLc cut 3cLNna5tH5Qxih4sSU_MB8 0gYX31J6v1weuMYx19cPMF 144r8EDUHAswhEadAmMHcp 1DXp$5DybFcxExl4luHNUt"><path d="M126.307,88.722 L126.307,114.461 L124.207,114.461 L124.207,116.061 L124.207,116.461 L141.035,116.461 L145.242,116.461 L145.242,114.861 L145.242,114.461 L141.035,114.461 L128.307,114.461 L128.307,92.2 L128.307,66.461 L129.64,66.461 L134.307,66.461 L134.307,65.527 L134.307,64.461 L129.64,64.461 L124.307,64.461 L124.307,65.394 L124.307,66.461 L126.307,66.461 Z"/></g><g class="0kCMs60nT87PDrUWPPikU$ 0PsKKtId57ZgtoMoCyiklh 3RHdz3imb3IPBIm_Eklz15 3fLVQhQmv7T9pWm4Y5kP2T layer-material-Unknown 34ASPe1n94uwEZkrishKqK material-concrete 2LQiPVCvvCkgWUpEjFl$fK IfcWall 2lcmIMh2v3Cv3FGmf0sZfv 15Zz$QNdXFcPuVnlEwaX3z 2$kWHw$6fEEBX_ZJ3uw1Lr IfcMaterialLayer 2myKEpj0b3eeAj_I36NyT8 0Nk5vioQ5CKAFXL_e1pvLc cut 3cLNna5tH5Qxih4sSU_MB8 0gYX31J6v1weuMYx19cPMF 144r8EDUHAswhEadAmMHcp 1DXp$5DybFcxExl4luHNUt"><path d="M66.307,89.061 L66.307,111.461 L67.24,111.461 L68.307,111.461 L68.307,91.861 L68.307,69.461 L67.373,69.461 L66.307,69.461 Z"/></g><g class="0kCMs60nT87PDrUWPPikU$ 0PsKKtId57ZgtoMoCyiklh 3RHdz3imb3IPBIm_Eklz15 3fLVQhQmv7T9pWm4Y5kP2T layer-material-Unknown 34ASPe1n94uwEZkrishKqK material-concrete 2LQiPVCvvCkgWUpEjFl$fK IfcWall 2lcmIMh2v3Cv3FGmf0sZfv 15Zz$QNdXFcPuVnlEwaX3z 2$kWHw$6fEEBX_ZJ3uw1Lr IfcMaterialLayer 2myKEpj0b3eeAj_I36NyT8 0Nk5vioQ5CKAFXL_e1pvLc cut 3cLNna5tH5Qxih4sSU_MB8 0gYX31J6v1weuMYx19cPMF 144r8EDUHAswhEadAmMHcp 1DXp$5DybFcxExl4luHNUt"><path d="M82.427,116.461 L85.207,116.461 L85.207,114.861 L85.207,114.461 L82.427,114.461 L71.307,114.461 L71.307,115.527 L71.307,116.461 Z"/></g><g class="0kCMs60nT87PDrUWPPikU$ 0PsKKtId57ZgtoMoCyiklh 3RHdz3imb3IPBIm_Eklz15 3fLVQhQmv7T9pWm4Y5kP2T layer-material-Unknown 34ASPe1n94uwEZkrishKqK material-concrete 2LQiPVCvvCkgWUpEjFl$fK IfcWall 2lcmIMh2v3Cv3FGmf0sZfv 15Zz$QNdXFcPuVnlEwaX3z 2$kWHw$6fEEBX_ZJ3uw1Lr IfcMaterialLayer 2myKEpj0b3eeAj_I36NyT8 0Nk5vioQ5CKAFXL_e1pvLc cut 3cLNna5tH5Qxih4sSU_MB8 0gYX31J6v1weuMYx19cPMF 144r8EDUHAswhEadAmMHcp 1DXp$5DybFcxExl4luHNUt"><path d="M68.307,120.461 L68.307,118.683 L68.307,116.461 L67.418,116.461 L66.307,116.461 L66.307,118.683 L66.307,120.461 L67.195,120.461 Z"/></g><g class="0kCMs60nT87PDrUWPPikU$ 0PsKKtId57ZgtoMoCyiklh 3RHdz3imb3IPBIm_Eklz15 3fLVQhQmv7T9pWm4Y5kP2T layer-material-Unknown 34ASPe1n94uwEZkrishKqK material-concrete 2LQiPVCvvCkgWUpEjFl$fK IfcWall 2lcmIMh2v3Cv3FGmf0sZfv 15Zz$QNdXFcPuVnlEwaX3z 2$kWHw$6fEEBX_ZJ3uw1Lr IfcMaterialLayer 2myKEpj0b3eeAj_I36NyT8 0Nk5vioQ5CKAFXL_e1pvLc cut 3cLNna5tH5Qxih4sSU_MB8 0gYX31J6v1weuMYx19cPMF 144r8EDUHAswhEadAmMHcp 1DXp$5DybFcxExl4luHNUt"><path d="M68.307,136.461 L129.855,136.461 L145.242,136.461 L145.242,134.861 L145.242,134.461 L129.855,134.461 L68.307,134.461 L68.307,130.905 L68.307,126.461 L67.418,126.461 L66.307,126.461 L66.307,130.905 L66.307,136.461 L67.195,136.461 Z"/></g><g class="0kCMs60nT87PDrUWPPikU$ 0PsKKtId57ZgtoMoCyiklh 3RHdz3imb3IPBIm_Eklz15 3fLVQhQmv7T9pWm4Y5kP2T layer-material-Unknown 34ASPe1n94uwEZkrishKqK material-concrete 2LQiPVCvvCkgWUpEjFl$fK IfcWall 2lcmIMh2v3Cv3FGmf0sZfv 15Zz$QNdXFcPuVnlEwaX3z 2$kWHw$6fEEBX_ZJ3uw1Lr IfcMaterialLayer 2myKEpj0b3eeAj_I36NyT8 0Nk5vioQ5CKAFXL_e1pvLc cut 3cLNna5tH5Qxih4sSU_MB8 0gYX31J6v1weuMYx19cPMF 144r8EDUHAswhEadAmMHcp 1DXp$5DybFcxExl4luHNUt"><path d="M154.973,66.461 L156.307,66.461 L156.307,65.527 L156.307,64.461 L154.973,64.461 L154.307,64.461 L154.307,65.394 L154.307,66.461 Z"/></g><g class="0kCMs60nT87PDrUWPPikU$ 0PsKKtId57ZgtoMoCyiklh 3RHdz3imb3IPBIm_Eklz15 3fLVQhQmv7T9pWm4Y5kP2T layer-material-Unknown 34ASPe1n94uwEZkrishKqK material-concrete 2LQiPVCvvCkgWUpEjFl$fK IfcWall 2lcmIMh2v3Cv3FGmf0sZfv 15Zz$QNdXFcPuVnlEwaX3z 2$kWHw$6fEEBX_ZJ3uw1Lr IfcMaterialLayer 2myKEpj0b3eeAj_I36NyT8 0Nk5vioQ5CKAFXL_e1pvLc cut 3cLNna5tH5Qxih4sSU_MB8 0gYX31J6v1weuMYx19cPMF 144r8EDUHAswhEadAmMHcp 1DXp$5DybFcxExl4luHNUt"><path d="M236.307,81.461 L236.307,89.061 L236.307,111.461 L237.24,111.461 L238.307,111.461 L238.307,91.861 L238.307,69.461 L237.373,69.461 L236.307,69.461 L236.307,79.461 L223.307,79.461 L223.307,73.394 L223.307,66.461 L233.307,66.461 L233.307,65.527 L233.307,64.461 L199.707,64.461 L161.307,64.461 L161.307,65.394 L161.307,66.461 L194.907,66.461 L206.307,66.461 L206.307,94.238 L206.307,116.461 L207.418,116.461 L208.307,116.461 L209.637,116.461 L209.969,116.461 L209.969,114.861 L209.969,114.461 L209.637,114.461 L208.307,114.461 L208.307,88.683 L208.307,81.461 L221.373,81.461 Z M208.307,66.461 L221.307,66.461 L221.307,72.527 L221.307,79.461 L208.307,79.461 Z"/></g><g class="0kCMs60nT87PDrUWPPikU$ 0PsKKtId57ZgtoMoCyiklh 3RHdz3imb3IPBIm_Eklz15 3fLVQhQmv7T9pWm4Y5kP2T layer-material-Unknown 34ASPe1n94uwEZkrishKqK material-concrete 2LQiPVCvvCkgWUpEjFl$fK IfcWall 2lcmIMh2v3Cv3FGmf0sZfv 15Zz$QNdXFcPuVnlEwaX3z 2$kWHw$6fEEBX_ZJ3uw1Lr IfcMaterialLayer 2myKEpj0b3eeAj_I36NyT8 0Nk5vioQ5CKAFXL_e1pvLc cut 3cLNna5tH5Qxih4sSU_MB8 0gYX31J6v1weuMYx19cPMF 144r8EDUHAswhEadAmMHcp 1DXp$5DybFcxExl4luHNUt"><path d="M156.307,111.461 L157.24,111.461 L158.307,111.461 L158.307,91.861 L158.307,69.461 L157.373,69.461 L156.307,69.461 L156.307,89.061 Z"/></g><g class="0kCMs60nT87PDrUWPPikU$ 0PsKKtId57ZgtoMoCyiklh 3RHdz3imb3IPBIm_Eklz15 3fLVQhQmv7T9pWm4Y5kP2T layer-material-Unknown 34ASPe1n94uwEZkrishKqK material-concrete 2LQiPVCvvCkgWUpEjFl$fK IfcWall 2lcmIMh2v3Cv3FGmf0sZfv 15Zz$QNdXFcPuVnlEwaX3z 2$kWHw$6fEEBX_ZJ3uw1Lr IfcMaterialLayer 2myKEpj0b3eeAj_I36NyT8 0Nk5vioQ5CKAFXL_e1pvLc cut 3cLNna5tH5Qxih4sSU_MB8 0gYX31J6v1weuMYx19cPMF 144r8EDUHAswhEadAmMHcp 1DXp$5DybFcxExl4luHNUt"><path d="M154.655,116.461 L156.307,116.461 L156.307,115.527 L156.307,114.461 L154.655,114.461 L154.242,114.461 L154.242,116.061 L154.242,116.461 Z"/></g><g class="0kCMs60nT87PDrUWPPikU$ 0PsKKtId57ZgtoMoCyiklh 3RHdz3imb3IPBIm_Eklz15 3fLVQhQmv7T9pWm4Y5kP2T layer-material-Unknown 34ASPe1n94uwEZkrishKqK material-concrete 2LQiPVCvvCkgWUpEjFl$fK IfcWall 2lcmIMh2v3Cv3FGmf0sZfv 15Zz$QNdXFcPuVnlEwaX3z 2$kWHw$6fEEBX_ZJ3uw1Lr IfcMaterialLayer 2myKEpj0b3eeAj_I36NyT8 0Nk5vioQ5CKAFXL_e1pvLc cut 3cLNna5tH5Qxih4sSU_MB8 0gYX31J6v1weuMYx19cPMF 144r8EDUHAswhEadAmMHcp 1DXp$5DybFcxExl4luHNUt"><path d="M218.969,116.461 L221.837,116.461 L233.307,116.461 L233.307,115.527 L233.307,114.461 L221.837,114.461 L218.969,114.461 L218.969,116.061 Z"/></g><g class="0kCMs60nT87PDrUWPPikU$ 0PsKKtId57ZgtoMoCyiklh 3RHdz3imb3IPBIm_Eklz15 3fLVQhQmv7T9pWm4Y5kP2T layer-material-Unknown 34ASPe1n94uwEZkrishKqK material-concrete 2LQiPVCvvCkgWUpEjFl$fK IfcWall 2lcmIMh2v3Cv3FGmf0sZfv 15Zz$QNdXFcPuVnlEwaX3z 2$kWHw$6fEEBX_ZJ3uw1Lr IfcMaterialLayer 2myKEpj0b3eeAj_I36NyT8 0Nk5vioQ5CKAFXL_e1pvLc cut 3cLNna5tH5Qxih4sSU_MB8 0gYX31J6v1weuMYx19cPMF 144r8EDUHAswhEadAmMHcp 1DXp$5DybFcxExl4luHNUt"><path d="M236.307,134.461 L171.055,134.461 L154.242,134.461 L154.242,136.061 L154.242,136.461 L171.055,136.461 L238.307,136.461 L238.307,135.35 L238.307,134.461 L238.307,126.061 L238.307,116.461 L237.373,116.461 L236.307,116.461 L236.307,124.861 Z"/></g><path d="M141.37324333190918,66.46065457661946 L128.30657958984375,66.46065457661946 L128.3065700531006,92.06064923604329 L128.30656051635742,114.4606564839681 L143.23989868164062,114.4606564839681 L156.30657196044922,114.4606564839681 L156.30657196044922,88.8606522878011 L156.30657196044922,66.46065457661946 Z" class="IfcSpace material-null"/><path d="M208.3065891265869,66.46065457661946 L208.3065891265869,72.52732022603352 L208.3065891265869,79.46064694722493 L214.37323570251465,79.46064694722493 L221.30656242370605,79.46064694722493 L221.30656242370605,73.39398129781087 L221.30658149719238,66.46065457661946 L215.23991584777832,66.46065457661946 Z" class="IfcSpace material-null"/><path d="M233.3065700531006,69.46064694722493 L233.3065700531006,68.06065305074056 L233.3065700531006,66.46065457661946 L228.6398983001709,66.46065457661946 L223.3065700531006,66.46065457661946 L223.3065700531006,72.52732022603352 L223.3065700531006,79.46064694722493 L229.37323570251465,79.46064694722493 L236.30656242370605,79.46064694722493 L236.30656242370605,74.79397519429524 L236.30656242370605,69.46064694722493 L234.90656852722168,69.46064694722493 Z" class="IfcSpace material-null"/><path d="M111.3732385635376,66.46065457661946 L98.30657005310059,66.46065457661946 L98.306565284729,92.06064923604329 L98.30655574798584,114.4606564839681 L113.23989391326904,114.4606564839681 L126.30656242370605,114.4606564839681 L126.30656242370605,88.8606522878011 L126.30657196044922,66.46065457661946 Z" class="IfcSpace material-null"/><path d="M96.30656242370605,114.4606564839681 L96.30656719207764,92.06064923604329 L96.3065767288208,66.46065457661946 L84.63990211486816,66.46065457661946 L71.30655765533447,66.46065457661946 L71.30655765533447,67.86064847310384 L71.30655765533447,69.46064694722493 L69.90656852722168,69.46064694722493 L68.30657005310059,69.46064694722493 L68.30657005310059,89.06063779195149 L68.30655097961426,111.46065457661946 L69.70656394958496,111.46065457661946 L71.30655765533447,111.46065457661946 L71.30655765533447,112.86064847310384 L71.30655765533447,114.4606564839681 L82.97322750091553,114.4606564839681 Z" class="IfcSpace material-null"/><path d="M158.30656051635742,69.46064694722493 L158.30655097961426,89.06065686543782 L158.30655097961426,111.46065457661946 L159.70656394958496,111.46065457661946 L161.30657196044922,111.46065457661946 L161.30657196044922,113.7939904530843 L161.30657196044922,116.46065457661946 L117.90656089782715,116.46065457661946 L68.30656051635742,116.46065457661946 L68.30656051635742,124.86065610249837 L68.30655097961426,134.46065648396808 L146.70655250549316,134.46065648396808 L236.3065242767334,134.46065648396808 L236.30654335021973,126.06065495808919 L236.30656242370605,116.46065457661946 L222.306547164917,116.46065457661946 L206.30656242370605,116.46065457661946 L206.30656242370605,93.12732442220052 L206.30658149719238,66.46065457661946 L185.30657768249512,66.46065457661946 L161.30657196044922,66.46065457661946 L161.30657196044922,67.86064847310384 L161.30657196044922,69.46064694722493 L159.90656852722168,69.46064694722493 Z" class="IfcSpace material-null"/><path d="M221.6399097442627,114.4606564839681 L233.3065700531006,114.4606564839681 L233.3065700531006,112.860658009847 L233.3065700531006,111.46065457661946 L234.90654945373535,111.46065457661946 L236.30654335021973,111.46065457661946 L236.30656242370605,95.4606507619222 L236.30656242370605,81.46065457661946 L221.37324333190918,81.46065457661946 L208.3065891265869,81.46065457661946 L208.3065700531006,99.06065686543782 L208.3065700531006,114.4606564839681 Z" class="IfcSpace material-null"/></g>
</svg>