<svg xmlns="http://www.w3.org/2000/svg" xmlns:xlink="http://www.w3.org/1999/xlink" xmlns:ifc="http://www.ifcopenshell.org/ns" width="500mm" height="500mm" viewBox="0 0 500 500">
    <defs>
        <marker id="arrowend" markerWidth="10" markerHeight="7" refX="10" refY="3.5" orient="auto">
          <polygon points="0 0, 10 3.5, 0 7"/>
        </marker>
        <marker id="arrowstart" markerWidth="10" markerHeight="7" refX="0" refY="3.5" orient="auto">
          <polygon points="10 0, 0 3.5, 10 7"/>
        </marker>
    </defs>
    <g ifc:name="Elevation MY STOREY PLAN" class="section" ifc:plane="[[1.000000,0.000000,0.000000,0.000000],[0.000000,1.000000,0.000000,0.000000],[0.000000,0.000000,1.000000,1.600000],[0.000000,0.000000,0.000000,1.000000]]" ifc:matrix3="[[10.000000,0.000000,216.987334],[0.000000,10.000000,274.044203],[0.000000,0.000000,1.000000]]">
        <g id="product-bf3d48c2-49f2-44f2-b354-c28312a9239d" class="IfcCovering material-null projection" ifc:name="Covering" ifc:guid="2$FKZ2IV94yhDKmeCIgIET">
            <path d="M214.98735311959967,222.0442064708856 L214.98733616810824,276.04421241644826"/>
            <path d="M213.98735345586783,221.04420646343502 L214.98735311959967,222.0442064708856"/>
            <path d="M213.98733587654348,277.04421236429414 L213.98735345586783,221.04420646343502"/>
            <path d="M214.98733616810824,276.04421241644826 L213.98733587654348,277.04421236429414"/>
        </g>
        <g id="product-9debb4c6-08d9-442f-a1b3-1b1424fc1744" class="IfcWall material-Brick projection" ifc:name="Wall" ifc:guid="2TwxJ62Db4Bw6p6nGa$1T4">
            <path d="M216.98733799095106,224.044204518833 L216.98733421605539,274.04421246099383"/>
            <path d="M214.98733818665033,222.04420456353648 L216.98733799095106,224.044204518833"/>
            <path d="M214.98733410976305,276.04421271828204 L214.98733818665033,222.04420456353648"/>
            <path d="M216.98733421605539,274.04421246099383 L214.98733410976305,276.04421271828204"/>
        </g>
        <g id="product-d43086cc-9c8a-43f4-abd5-048e007c2fa5" class="IfcWall material-Brick projection" ifc:name="Wall" ifc:guid="3KC8RCd8f3zAlL18u0V2_b">
            <path d="M276.98733764332314,224.044204518833 L216.98733799095098,224.044204518833"/>
            <path d="M278.98733768604245,222.04420456353648 L276.98733764332314,224.044204518833"/>
            <path d="M214.98733818665025,222.04420456353648 L278.98733768604245,222.04420456353648"/>
            <path d="M216.98733799095098,224.044204518833 L214.98733818665025,222.04420456353648"/>
        </g>
        <g id="product-294bce54-069d-44d1-b648-aec461c0e6fa" class="IfcWall material-Brick projection" ifc:name="Wall" ifc:guid="0fIyvK1fr4qRP8hiHXmERw">
            <path d="M216.98733421605539,274.04421246099383 L276.98733545775389,274.04420340124551"/>
            <path d="M214.98733410976305,276.04421271828204 L216.98733421605539,274.04421246099383"/>
            <path d="M278.98733532562761,276.04420305455045 L214.98733410976305,276.04421271828204"/>
            <path d="M276.98733545775389,274.04420340124551 L278.98733532562761,276.04420305455045"/>
        </g>
        <g id="product-0d504dd8-455e-442c-af8e-295fa88dca9a" class="IfcCovering material-null projection" ifc:name="Covering" ifc:guid="0DK4tOHLv4BA_EAL_eZSgQ">
            <path d="M278.98735772504966,222.04420837823434 L214.98735311959967,222.0442064708856"/>
            <path d="M279.98735801661439,221.04420843038844 L278.98735772504966,222.04420837823434"/>
            <path d="M213.98735345586783,221.04420646343502 L279.98735801661439,221.04420843038844"/>
            <path d="M214.98735311959967,222.0442064708856 L213.98735345586783,221.04420646343502"/>
        </g>
        <g id="product-3ab3a2be-64cf-4769-89e3-95d7c8af2e6e" class="IfcCovering material-null projection" ifc:name="Covering" ifc:guid="0wiwA_PCz7QOdZbTV8hovk">
            <path d="M279.98734043729007,277.04421433124759 L213.98733587654348,277.04421236429414"/>
            <path d="M278.98734077355823,276.04421432379701 L279.98734043729007,277.04421433124759"/>
            <path d="M214.98733616810824,276.04421241644826 L278.98734077355823,276.04421432379701"/>
            <path d="M213.98733587654348,277.04421236429414 L214.98733616810824,276.04421241644826"/>
        </g>
        <g id="product-d672e64f-fbf2-4058-a80b-16d922160ffa" class="IfcWall material-WoodWall projection" ifc:name="Wall" ifc:guid="3MSkPF_$90MAWB5jaY5W$w">
            <path d="M249.98733742135269,249.54420347202642 L216.98733908373526,249.54420347202642"/>
            <path d="M249.98733742135269,248.54420349437817 L249.98733742135269,249.54420347202642"/>
            <path d="M216.98733908373526,248.54420349437817 L249.98733742135269,248.54420349437817"/>
            <path d="M216.98733908373526,249.54420347202642 L216.98733908373526,248.54420349437817"/>
        </g>
        <g id="product-164640ff-4e81-4abd-b103-365d9926c82b" class="IfcCovering material-Finish projection" ifc:name="Covering" ifc:guid="0MHa3$Je5AlR43DbsP9iWh">
            <path d="M216.98733879668984,224.04421113612625 L276.98733426565997,224.04420207637878"/>
            <path d="M217.08733883538306,224.14421112832824 L216.98733879668984,224.04421113612625"/>
            <path d="M276.88733427465047,224.14420209877994 L217.08733883538306,224.14421112832824"/>
            <path d="M276.98733426565997,224.04420207637878 L276.88733427465047,224.14420209877994"/>
        </g>
        <g id="product-470378dc-16fc-4af2-aa96-72f5de778ed6" class="IfcCovering material-Finish projection" ifc:name="Covering" ifc:guid="170tZS5lnAyggMSlNUTuxM">
            <path d="M216.98735449251387,274.04421225993627 L216.98734680155889,249.544207763401"/>
            <path d="M217.0873544684238,273.94421223753517 L216.98735449251387,274.04421225993627"/>
            <path d="M217.08734684025208,249.64420775560299 L217.0873544684238,273.94421223753511"/>
            <path d="M216.98734680155889,249.544207763401 L217.08734684025208,249.64420775560299"/>
        </g>
        <g id="product-6322c82e-ec72-41cc-a426-3481ce906ce3" class="IfcCovering material-Finish projection" ifc:name="Covering" ifc:guid="1Z8iWkx791pAGcD87Ea6pZ">
            <path d="M217.08734646355353,248.44421157136321 L250.08733774448956,248.44420658850305"/>
            <path d="M216.98734648764361,248.54421159376435 L217.08734646355353,248.44421157136321"/>
            <path d="M249.98733776998435,248.54420661090418 L216.98734648764361,248.54421159376435"/>
            <path d="M250.08733774448956,248.44420658850305 L249.98733776998435,248.54420661090418"/>
        </g>
        <g id="product-0dda15ef-e6d5-4bc9-a688-163f40a9cd2c" class="IfcCovering material-Finish projection" ifc:name="Covering" ifc:guid="0DsXNlvjLBoQQ85Zz0gSqi">
            <path d="M216.98734645928735,248.45388100068266 L216.98733879668987,224.04421113612625"/>
            <path d="M217.08734646658891,248.45388096929102 L216.98734645928735,248.45388100068266"/>
            <path d="M217.08733883538309,224.14421112832824 L217.08734646658891,248.45388096929102"/>
            <path d="M216.98733879668987,224.04421113612625 L217.08733883538309,224.14421112832824"/>
        </g>
        <g id="product-bf169b02-6930-4112-8d6b-f7eb08f1694e" class="IfcCovering material-Finish projection" ifc:name="Covering" ifc:guid="2$5fi2QJ114erhz_i8yMbE">
            <path d="M216.98733421605669,273.94421225263778 L276.88734238810076,273.94420320798798"/>
            <path d="M216.9873342311563,274.04421225993934 L216.98733421605669,273.94421225263778"/>
            <path d="M276.98734241169439,274.04420320018994 L216.98733423115627,274.04421225993934"/>
            <path d="M276.88734238810076,273.94420320798798 L276.98734241169439,274.04420320018994"/>
        </g>
        <g id="product-8274bdb1-35b9-4acd-8498-71c9a659baa2" class="IfcWall material-Brick projection" ifc:name="Wall" ifc:guid="22TBsnDRbApOIOSSccMRgY">
            <path d="M278.98733532562767,276.04420305455045 L276.98733545775389,274.04420340124551"/>
            <path d="M278.98733557908093,270.24586732853618 L278.98733532562767,276.04420305455045"/>
            <path d="M276.98733562378442,270.24586717754039 L278.98733557908093,270.24586732853618"/>
            <path d="M276.98733545775389,274.04420340124551 L276.98733562378442,270.24586717754039"/>
            <path d="M276.98733623887773,256.17417315612977 L276.98733764332326,224.044204518833"/>
            <path d="M278.98733619417425,256.17417330712556 L276.98733623887773,256.17417315612977"/>
            <path d="M278.98733768604257,222.04420456353648 L278.98733619417425,256.17417330712556"/>
            <path d="M276.98733764332326,224.044204518833 L278.98733768604257,222.04420456353648"/>
        </g>
        <g id="product-d6e4725e-024f-492c-8b26-43bb1acf2f36" class="IfcCovering material-Finish projection" ifc:name="Covering" ifc:guid="3Mv79U0az9B8icGxiQpoys">
            <path d="M216.98734680155894,249.54420797980333 L249.9873383554461,249.54420299694311"/>
            <path d="M217.08734684025217,249.64420797200532 L216.98734680155894,249.54420797980333"/>
            <path d="M250.08733842129408,249.6442029891451 L217.08734684025214,249.64420797200532"/>
            <path d="M249.9873383554461,249.54420299694311 L250.08733842129408,249.6442029891451"/>
        </g>
        <g id="product-f3487b46-1876-4020-8f15-47809d19abeb" class="IfcCovering material-Finish projection" ifc:name="Covering" ifc:guid="3pI7j667P088yLHu2T6Qlh">
            <path d="M249.98733808389969,249.54420299694314 L249.98733776998435,248.54420661090418"/>
            <path d="M250.08733812259291,249.6442029898009 L249.98733808389969,249.54420299694314"/>
            <path d="M250.08733774589427,248.44420658960985 L250.08733812259291,249.6442029898009"/>
            <path d="M249.98733776998435,248.54420661090418 L250.08733774589427,248.44420658960985"/>
        </g>
        <g id="product-ecac8f64-0cbc-4969-968e-53498cb84650" class="IfcCovering material-Finish projection" ifc:name="Covering" ifc:guid="3ih8za3Bn9QPQEKqcCk4PG">
            <path d="M276.88733427465047,224.14420209877994 L276.98733426565997,224.04420207637878"/>
            <path d="M276.88733949299535,256.17417370271079 L276.88733427465047,224.14420209877994"/>
            <path d="M276.98733950029691,256.17417370271079 L276.88733949299535,256.17417370271079"/>
            <path d="M276.98733426565997,224.04420207637878 L276.98733950029691,256.17417370271079"/>
            <path d="M276.9873417928668,270.24586650341831 L276.98734241169439,274.04420320018994"/>
            <path d="M276.88734178556518,270.24586650341831 L276.9873417928668,270.24586650341831"/>
            <path d="M276.88734238810076,273.94420320798798 L276.88734178556518,270.24586650341831"/>
            <path d="M276.98734241169439,274.04420320018994 L276.88734238810076,273.94420320798798"/>
        </g>
        <g id="product-d02a1088-d428-4d8e-93aa-158e39c6e23a" class="IfcCovering material-Finish projection" ifc:name="Covering" ifc:guid="3GAX28r2XDZfEg5Ouvnk8w">
            <path d="M216.98734648764349,248.54421122851701 L216.98734645928735,248.45388100068266"/>
            <path d="M217.07767670183836,248.45388097232652 L216.98734648764349,248.54421122851701"/>
            <path d="M216.98734645928735,248.45388100068266 L217.07767670183836,248.45388097232652"/>
        </g>
        <g id="product-0dc81c0d-74d3-4735-a573-b529dbb1c6e9" class="IfcCovering material-null projection" ifc:name="Covering" ifc:guid="0Do1mDTDD7DQLpjIdRiSRf">
            <path d="M278.98735772504966,222.04420837823437 L279.98735801661439,221.04420843038844"/>
            <path d="M278.98734701109129,256.17417370271079 L278.98735772504966,222.04420837823437"/>
            <path d="M279.9873469887396,256.17417370271079 L278.98734701109129,256.17417370271079"/>
            <path d="M279.98735801661439,221.04420843038844 L279.9873469887396,256.17417370271079"/>
            <path d="M279.98734257140342,270.24586650341831 L279.98734043729007,277.04421433124759"/>
            <path d="M278.9873425937551,270.24586650341831 L279.98734257140342,270.24586650341831"/>
            <path d="M278.98734077355823,276.04421432379701 L278.9873425937551,270.24586650341831"/>
            <path d="M279.98734043729007,277.04421433124759 L278.98734077355823,276.04421432379701"/>
        </g>
    <g ifc:guid="2$FKZ2IV94yhDKmeCIgIET" ifc:name="Covering" class="IfcCovering material-null cut"><path d="M214.98734951019284,247.24421501159668 L214.98735666275022,222.04421043395996 L214.45402383804318,221.51087760925293 L213.98735761642453,221.04421138763428 L213.98734807968137,250.9108829498291 L213.987340927124,277.04421758651733 L214.52067375183103,276.5108847618103 L214.98733997344968,276.04421854019165 Z"/></g><g ifc:guid="0wiwA_PCz7QOdZbTV8hovk" ifc:name="Covering" class="IfcCovering material-null cut"><path d="M249.18734312057492,277.0442199707031 L279.98734474182123,277.0442199707031 L279.4540119171142,276.5108871459961 L278.98734569549555,276.04421854019165 L244.8540091514587,276.04421854019165 L214.98733997344968,276.04421854019165 L214.45400714874265,276.5775513648987 L213.987340927124,277.04421758651733 Z"/></g><g ifc:guid="0Do1mDTDD7DQLpjIdRiSRf" ifc:name="Covering" class="IfcCovering material-null cut"><path d="M279.45403099060053,221.5775489807129 L278.9873647689819,222.04421520233154 L278.9873552322387,248.047993183136 L278.98735046386713,256.1741781234741 L279.74925518035883,256.1741781234741 L279.9873542785644,256.1741781234741 L279.9873542785644,247.809898853302 L279.98736381530756,221.04421138763428 Z"/><path d="M279.2254447937011,270.2458715438843 L278.98734569549555,270.2458715438843 L278.98734569549555,271.6264295578003 L278.98734569549555,276.04421854019165 L279.5206785202026,276.5775537490845 L279.98734474182123,277.0442199707031 L279.98734474182123,271.86452627182007 L279.9873495101928,270.2458715438843 Z"/></g><g ifc:guid="0DK4tOHLv4BA_EAL_eZSgQ" ifc:name="Covering" class="IfcCovering material-null cut"><path d="M249.12069559097287,222.04421043395996 L278.9873647689819,222.04421043395996 L279.5206975936889,221.51087760925293 L279.98736381530756,221.04421138763428 L244.78735923767087,221.04421138763428 L213.98735761642453,221.04421138763428 L214.52069044113156,221.5775442123413 L214.98735666275022,222.04421043395996 Z"/></g><g ifc:guid="2$5fi2QJ114erhz_i8yMbE" ifc:name="Covering" class="IfcCovering material-Finish cut"><path d="M244.94067668914792,273.94421339035034 L216.98733806610105,273.9442181587219 L216.98733806610105,273.99755001068115 L216.98733806610105,274.0442180633545 L248.9873433113098,274.0442132949829 L276.9873476028442,274.0442085266113 L276.93401336669916,273.9908742904663 L276.8873453140258,273.94420862197876 Z"/></g><g ifc:guid="3ih8za3Bn9QPQEKqcCk4PG" ifc:name="Covering" class="IfcCovering material-Finish cut"><path d="M276.934003829956,224.09753799438477 L276.88734054565424,224.1442060470581 L276.8873453140258,248.54799270629883 L276.8873453140258,256.1741781234741 L276.9635343551635,256.174179315567 L276.9873428344726,256.174179315567 L276.9873428344726,248.52418422698975 L276.987338066101,224.04420375823975 Z"/><path d="M276.9111585617065,270.2458715438843 L276.8873453140258,270.2458715438843 L276.8873453140258,271.12642765045166 L276.8873453140258,273.94420862197876 L276.94067955017084,273.997540473938 L276.9873476028442,274.0442085266113 L276.9873476028442,271.15023851394653 L276.9873476028442,270.2458715438843 Z"/></g><g ifc:guid="0MHa3$Je5AlR43DbsP9iWh" ifc:name="Covering" class="IfcCovering material-Finish cut"><path d="M244.98733997344968,224.04420852661133 L216.98734283447263,224.0442132949829 L217.04067707061765,224.09754753112793 L217.0873403549194,224.1442108154297 L248.98067235946652,224.1442060470581 L276.88733577728266,224.1442060470581 L276.9406700134277,224.0908718109131 L276.987338066101,224.04420375823975 Z"/></g><g ifc:guid="0DsXNlvjLBoQQ85Zz0gSqi" ifc:name="Covering" class="IfcCovering material-Finish cut"><path d="M216.9873476028442,237.06270456314087 L216.98734998703,248.45388412475586 L217.04068422317502,248.45388412475586 L217.08734989166257,248.45388412475586 L217.087345123291,235.48872470855713 L217.0873427391052,224.14421558380127 L217.03400850296018,224.09088134765625 L216.98734283447263,224.0442132949829 Z"/></g><g ifc:guid="3pI7j667P088yLHu2T6Qlh" ifc:name="Covering" class="IfcCovering material-Finish cut"><path d="M249.98734235763547,249.07754182815552 L249.98734235763547,249.54420804977417 L250.0406765937805,249.5975422859192 L250.08734226226804,249.64420795440674 L250.08734226226804,249.00420904159546 L250.08734226226804,248.4442114830017 L250.03400802612302,248.49754571914673 L249.98734235763547,248.54421138763428 Z"/></g><g ifc:guid="170tZS5lnAyggMSlNUTuxM" ifc:name="Covering" class="IfcCovering material-Finish cut"><path d="M216.98735475540158,262.61088252067566 L216.98735952377316,274.0442180633545 L217.0406913757324,273.9908838272095 L217.08735942840573,273.9442181587219 L217.08735466003415,260.98421573638916 L217.08734989166257,249.64421272277832 L217.03401803970334,249.5908784866333 L216.98734998703,249.54421281814575 Z"/></g><g ifc:guid="3GAX28r2XDZfEg5Ouvnk8w" ifc:name="Covering" class="IfcCovering material-Finish cut"><path d="M216.98734998703,248.5020637512207 L216.98734998703,248.54421615600586 L217.03552722930905,248.4960412979126 L217.0776796340942,248.45388650894165 L217.02950477600095,248.45388650894165 L216.98734998703,248.45388650894165 Z"/></g><g ifc:guid="1Z8iWkx791pAGcD87Ea6pZ" ifc:name="Covering" class="IfcCovering material-Finish cut"><path d="M232.48734593391416,248.4442138671875 L217.08734989166257,248.4442162513733 L217.03401565551755,248.4975504875183 L216.98734998703,248.54421615600586 L234.58734631538388,248.54421377182007 L249.98734235763547,248.54421138763428 L250.0406765937805,248.49087715148926 L250.08734226226804,248.4442114830017 Z"/></g><g ifc:guid="3Mv79U0az9B8icGxiQpoys" ifc:name="Covering" class="IfcCovering material-Finish cut"><path d="M232.3873460292816,249.54421043395996 L216.98734998703,249.54421281814575 L217.04068422317502,249.59754705429077 L217.08734989166257,249.64421272277832 L234.68734622001645,249.64421033859253 L250.08734226226804,249.64420795440674 L250.03400802612302,249.59087371826172 L249.98734235763547,249.54420804977417 Z"/></g><g ifc:guid="2$FKZ2IV94yhDKmeCIgIET" ifc:name="Covering" ifc:layer-id="1781" class="IfcCovering material-null IfcMaterialLayer layer-material-Unknown cut"><path d="M214.98734951019284,247.24421501159668 L214.98735666275022,222.04421043395996 L214.45402383804318,221.51087760925293 L213.98735761642453,221.04421138763428 L213.98734807968137,250.9108829498291 L213.987340927124,277.04421758651733 L214.52067375183103,276.5108847618103 L214.98733997344968,276.04421854019165 Z"/></g><g ifc:guid="0wiwA_PCz7QOdZbTV8hovk" ifc:name="Covering" ifc:layer-id="1781" class="IfcCovering material-null IfcMaterialLayer layer-material-Unknown cut"><path d="M249.18734312057492,277.0442199707031 L279.98734474182123,277.0442199707031 L279.4540119171142,276.5108871459961 L278.98734569549555,276.04421854019165 L244.8540091514587,276.04421854019165 L214.98733997344968,276.04421854019165 L214.45400714874265,276.5775513648987 L213.987340927124,277.04421758651733 Z"/></g><g ifc:guid="0Do1mDTDD7DQLpjIdRiSRf" ifc:name="Covering" ifc:layer-id="1781" class="IfcCovering material-null IfcMaterialLayer layer-material-Unknown cut"><path d="M279.45403099060053,221.5775489807129 L278.9873647689819,222.04421520233154 L278.9873552322387,248.047993183136 L278.98735046386713,256.1741781234741 L279.74925518035883,256.1741781234741 L279.9873542785644,256.1741781234741 L279.9873542785644,247.809898853302 L279.98736381530756,221.04421138763428 Z"/><path d="M279.2254447937011,270.2458715438843 L278.98734569549555,270.2458715438843 L278.98734569549555,271.6264295578003 L278.98734569549555,276.04421854019165 L279.5206785202026,276.5775537490845 L279.98734474182123,277.0442199707031 L279.98734474182123,271.86452627182007 L279.9873495101928,270.2458715438843 Z"/></g><g ifc:guid="0DK4tOHLv4BA_EAL_eZSgQ" ifc:name="Covering" ifc:layer-id="1781" class="IfcCovering material-null IfcMaterialLayer layer-material-Unknown cut"><path d="M249.12069559097287,222.04421043395996 L278.9873647689819,222.04421043395996 L279.5206975936889,221.51087760925293 L279.98736381530756,221.04421138763428 L244.78735923767087,221.04421138763428 L213.98735761642453,221.04421138763428 L214.52069044113156,221.5775442123413 L214.98735666275022,222.04421043395996 Z"/></g><g ifc:guid="2$5fi2QJ114erhz_i8yMbE" ifc:name="Covering" ifc:layer-id="2332" class="IfcCovering material-Finish IfcMaterialLayer layer-material-Unknown cut"><path d="M244.94067668914792,273.94421339035034 L216.98733806610105,273.9442181587219 L216.98733806610105,273.99755001068115 L216.98733806610105,274.0442180633545 L248.9873433113098,274.0442132949829 L276.9873476028442,274.0442085266113 L276.93401336669916,273.9908742904663 L276.8873453140258,273.94420862197876 Z"/></g><g ifc:guid="3ih8za3Bn9QPQEKqcCk4PG" ifc:name="Covering" ifc:layer-id="2332" class="IfcCovering material-Finish IfcMaterialLayer layer-material-Unknown cut"><path d="M276.934003829956,224.09753799438477 L276.88734054565424,224.1442060470581 L276.8873453140258,248.54799270629883 L276.8873453140258,256.1741781234741 L276.9635343551635,256.174179315567 L276.9873428344726,256.174179315567 L276.9873428344726,248.52418422698975 L276.987338066101,224.04420375823975 Z"/><path d="M276.9111585617065,270.2458715438843 L276.8873453140258,270.2458715438843 L276.8873453140258,271.12642765045166 L276.8873453140258,273.94420862197876 L276.94067955017084,273.997540473938 L276.9873476028442,274.0442085266113 L276.9873476028442,271.15023851394653 L276.9873476028442,270.2458715438843 Z"/></g><g ifc:guid="0MHa3$Je5AlR43DbsP9iWh" ifc:name="Covering" ifc:layer-id="2332" class="IfcCovering material-Finish IfcMaterialLayer layer-material-Unknown cut"><path d="M244.98733997344968,224.04420852661133 L216.98734283447263,224.0442132949829 L217.04067707061765,224.09754753112793 L217.0873403549194,224.1442108154297 L248.98067235946652,224.1442060470581 L276.88733577728266,224.1442060470581 L276.9406700134277,224.0908718109131 L276.987338066101,224.04420375823975 Z"/></g><g ifc:guid="0DsXNlvjLBoQQ85Zz0gSqi" ifc:name="Covering" ifc:layer-id="2332" class="IfcCovering material-Finish IfcMaterialLayer layer-material-Unknown cut"><path d="M216.9873476028442,237.06270456314087 L216.98734998703,248.45388412475586 L217.04068422317502,248.45388412475586 L217.08734989166257,248.45388412475586 L217.087345123291,235.48872470855713 L217.0873427391052,224.14421558380127 L217.03400850296018,224.09088134765625 L216.98734283447263,224.0442132949829 Z"/></g><g ifc:guid="3pI7j667P088yLHu2T6Qlh" ifc:name="Covering" ifc:layer-id="2332" class="IfcCovering material-Finish IfcMaterialLayer layer-material-Unknown cut"><path d="M249.98734235763547,249.07754182815552 L249.98734235763547,249.54420804977417 L250.0406765937805,249.5975422859192 L250.08734226226804,249.64420795440674 L250.08734226226804,249.00420904159546 L250.08734226226804,248.4442114830017 L250.03400802612302,248.49754571914673 L249.98734235763547,248.54421138763428 Z"/></g><g ifc:guid="170tZS5lnAyggMSlNUTuxM" ifc:name="Covering" ifc:layer-id="2332" class="IfcCovering material-Finish IfcMaterialLayer layer-material-Unknown cut"><path d="M216.98735475540158,262.61088252067566 L216.98735952377316,274.0442180633545 L217.0406913757324,273.9908838272095 L217.08735942840573,273.9442181587219 L217.08735466003415,260.98421573638916 L217.08734989166257,249.64421272277832 L217.03401803970334,249.5908784866333 L216.98734998703,249.54421281814575 Z"/></g><g ifc:guid="3GAX28r2XDZfEg5Ouvnk8w" ifc:name="Covering" ifc:layer-id="2332" class="IfcCovering material-Finish IfcMaterialLayer layer-material-Unknown cut"><path d="M216.98734998703,248.5020637512207 L216.98734998703,248.54421615600586 L217.03552722930905,248.4960412979126 L217.0776796340942,248.45388650894165 L217.02950477600095,248.45388650894165 L216.98734998703,248.45388650894165 Z"/></g><g ifc:guid="1Z8iWkx791pAGcD87Ea6pZ" ifc:name="Covering" ifc:layer-id="2332" class="IfcCovering material-Finish IfcMaterialLayer layer-material-Unknown cut"><path d="M232.48734593391416,248.4442138671875 L217.08734989166257,248.4442162513733 L217.03401565551755,248.4975504875183 L216.98734998703,248.54421615600586 L234.58734631538388,248.54421377182007 L249.98734235763547,248.54421138763428 L250.0406765937805,248.49087715148926 L250.08734226226804,248.4442114830017 Z"/></g><g ifc:guid="3Mv79U0az9B8icGxiQpoys" ifc:name="Covering" ifc:layer-id="2332" class="IfcCovering material-Finish IfcMaterialLayer layer-material-Unknown cut"><path d="M232.3873460292816,249.54421043395996 L216.98734998703,249.54421281814575 L217.04068422317502,249.59754705429077 L217.08734989166257,249.64421272277832 L234.68734622001645,249.64421033859253 L250.08734226226804,249.64420795440674 L250.03400802612302,249.59087371826172 L249.98734235763547,249.54420804977417 Z"/></g><g class="3KC8RCd8f3zAlL18u0V2_b 0fIyvK1fr4qRP8hiHXmERw cut 22TBsnDRbApOIOSSccMRgY IfcWall 2TwxJ62Db4Bw6p6nGa$1T4 material-Brick"><path d="M276.987,248.524 L276.987,256.174 L278.511,256.174 L278.987,256.174 L278.987,248.048 L278.987,222.044 L244.854,222.044 L214.987,222.044 L216.054,223.111 L216.987,224.044 L248.987,224.044 L276.987,224.044 Z M277.9874688232536,223.04446882325362 L277.921,223.111 L276.987,224.044 Z"/></g><g class="3KC8RCd8f3zAlL18u0V2_b 0fIyvK1fr4qRP8hiHXmERw cut 22TBsnDRbApOIOSSccMRgY IfcWall 2TwxJ62Db4Bw6p6nGa$1T4 material-Brick"><path d="M215.921,222.978 L214.987,222.044 L214.987,250.844 L214.987,276.044 L249.121,276.044 L278.987,276.044 L278.987,271.626 L278.987,270.246 L277.464,270.246 L276.987,270.246 L276.987,271.15 L276.987,274.044 L244.987,274.044 L216.987,274.044 L216.987,247.378 L216.987,224.044 Z M215.98746882323942,275.04446882326783 L215.921,275.111 L214.987,276.044 Z M277.9874688232536,275.0444688232536 L277.921,274.978 L276.987,274.044 Z"/></g><g class="IfcWall 3MSkPF_$90MAWB5jaY5W$w cut material-WoodWall"><path d="M234.587,249.544 L249.987,249.544 L249.987,249.011 L249.987,248.544 L232.387,248.544 L216.987,248.544 L216.987,249.078 L216.987,249.544 Z"/></g><g class="3KC8RCd8f3zAlL18u0V2_b 0fIyvK1fr4qRP8hiHXmERw layer-material-Unknown cut IfcMaterialLayer IfcWall 22TBsnDRbApOIOSSccMRgY 2TwxJ62Db4Bw6p6nGa$1T4 material-Brick"><path d="M276.987,248.524 L276.987,256.174 L278.511,256.174 L278.987,256.174 L278.987,248.048 L278.987,222.044 L244.854,222.044 L214.987,222.044 L216.054,223.111 L216.987,224.044 L248.987,224.044 L276.987,224.044 Z M277.9874688232536,223.04446882325362 L277.921,223.111 L276.987,224.044 Z"/></g><g class="3KC8RCd8f3zAlL18u0V2_b 0fIyvK1fr4qRP8hiHXmERw layer-material-Unknown cut IfcMaterialLayer IfcWall 22TBsnDRbApOIOSSccMRgY 2TwxJ62Db4Bw6p6nGa$1T4 material-Brick"><path d="M215.921,222.978 L214.987,222.044 L214.987,250.844 L214.987,276.044 L249.121,276.044 L278.987,276.044 L278.987,271.626 L278.987,270.246 L277.464,270.246 L276.987,270.246 L276.987,271.15 L276.987,274.044 L244.987,274.044 L216.987,274.044 L216.987,247.378 L216.987,224.044 Z M215.98746882323942,275.04446882326783 L215.921,275.111 L214.987,276.044 Z M277.9874688232536,275.0444688232536 L277.921,274.978 L276.987,274.044 Z"/></g><g class="3MSkPF_$90MAWB5jaY5W$w layer-material-Unknown cut IfcMaterialLayer IfcWall material-WoodWall"><path d="M234.587,249.544 L249.987,249.544 L249.987,249.011 L249.987,248.544 L232.387,248.544 L216.987,248.544 L216.987,249.078 L216.987,249.544 Z"/></g></g>
</svg>